<?xml version="1.0" encoding="utf-8"?>
<!-- Generator: Adobe Illustrator 24.0.1, SVG Export Plug-In . SVG Version: 6.00 Build 0)  -->
<svg version="1.1" id="Capa_1" xmlns="http://www.w3.org/2000/svg" xmlns:xlink="http://www.w3.org/1999/xlink" x="0px" y="0px"
	 viewBox="0 0 1229 598" style="enable-background:new 0 0 1229 598;" xml:space="preserve">
<style type="text/css">
	.st0{fill:#00365F;stroke:#00365F;stroke-width:1.3003;stroke-miterlimit:10;}
	.st1{fill:#00365F;}
	.st2{fill:#FFFFFF;}
	.st3{fill:#E3271F;}
	.st4{fill:#005687;}
	.st5{fill:#00365F;stroke:#FFFFFF;stroke-width:1.1966;stroke-miterlimit:10;}
	.st6{fill:#00365F;stroke:#00365F;stroke-width:0.8975;stroke-miterlimit:10;}
	.st7{fill:#FFFFFF;stroke:#00365F;stroke-width:3.5899;stroke-miterlimit:10;}
</style>
<g>
	<path class="st0" d="M568.21,230.33l-7.56,7.79c-5.14-5.87-10.92-8.81-17.35-8.81c-5.42,0-9.99,2-13.71,6.02
		c-3.71,4.01-5.57,8.95-5.57,14.82c0,4.1,0.82,7.73,2.47,10.9c1.65,3.17,3.97,5.67,6.98,7.48c3.01,1.81,6.35,2.72,10.02,2.72
		c3.13,0,6-0.64,8.6-1.9c2.6-1.26,5.45-3.57,8.56-6.91l7.32,8.26c-4.19,4.43-8.15,7.49-11.88,9.21c-3.73,1.71-7.99,2.57-12.77,2.57
		c-8.82,0-16.04-3.03-21.66-9.08c-5.62-6.05-8.43-13.81-8.43-23.26c0-6.12,1.28-11.56,3.84-16.32c2.56-4.76,6.22-8.58,10.99-11.48
		c4.77-2.89,9.91-4.34,15.41-4.34c4.68,0,9.19,1.07,13.52,3.21C561.33,223.35,565.07,226.39,568.21,230.33z"/>
	<path class="st0" d="M604.85,218c8.03,0,14.93,3.14,20.71,9.43c5.78,6.29,8.67,13.95,8.67,22.99c0,8.96-2.85,16.54-8.55,22.75
		c-5.7,6.2-12.62,9.3-20.75,9.3c-8.52,0-15.6-3.18-21.23-9.56c-5.64-6.37-8.45-13.94-8.45-22.7c0-5.87,1.31-11.27,3.94-16.19
		c2.63-4.92,6.24-8.83,10.83-11.71C594.6,219.44,599.55,218,604.85,218z M604.74,229.43c-5.25,0-9.67,1.98-13.25,5.93
		c-3.58,3.95-5.37,8.97-5.37,15.06c0,6.79,2.25,12.16,6.76,16.11c3.5,3.09,7.52,4.63,12.05,4.63c5.12,0,9.49-2,13.09-6.01
		c3.61-4.01,5.41-8.94,5.41-14.81c0-5.85-1.82-10.79-5.45-14.84C614.35,231.46,609.93,229.43,604.74,229.43z"/>
	<path class="st0" d="M644.81,219.55h10.8v50.24h15.74v11.14h-26.54V219.55z"/>
	<path class="st0" d="M680.01,219.55h30.98v11.43h-20.25v11.1h20.25v11.23h-20.25v16.15h20.25v11.48h-30.98V219.55z"/>
	<path class="st0" d="M773.84,229.56l-7.61,8.14c-4.81-5.5-10.42-8.26-16.84-8.26c-5.59,0-10.27,2-14.04,6.01
		c-3.77,4.01-5.66,8.88-5.66,14.6c0,5.93,1.96,10.95,5.87,15.07c3.91,4.12,8.74,6.18,14.48,6.18c3.73,0,6.88-0.85,9.44-2.55
		c2.56-1.69,4.63-4.35,6.2-7.97h-16.43V249.8h28.55l0.08,2.59c0,5.37-1.29,10.46-3.86,15.28c-2.57,4.81-5.9,8.48-10,11.01
		c-4.09,2.53-8.88,3.8-14.39,3.8c-5.89,0-11.14-1.38-15.76-4.15c-4.62-2.77-8.27-6.71-10.96-11.83c-2.69-5.12-4.03-10.64-4.03-16.57
		c0-8.12,2.48-15.19,7.45-21.2c5.89-7.15,13.55-10.73,22.99-10.73c4.94,0,9.56,0.99,13.85,2.96
		C766.82,222.64,770.37,225.5,773.84,229.56z"/>
	<path class="st0" d="M787.43,219.55h10.73v61.38h-10.73V219.55z"/>
	<path class="st0" d="M837.5,218c8.03,0,14.93,3.14,20.71,9.43c5.78,6.29,8.67,13.95,8.67,22.99c0,8.96-2.85,16.54-8.55,22.75
		c-5.7,6.2-12.62,9.3-20.75,9.3c-8.52,0-15.6-3.18-21.23-9.56c-5.64-6.37-8.45-13.94-8.45-22.7c0-5.87,1.31-11.27,3.94-16.19
		c2.62-4.92,6.23-8.83,10.83-11.71C827.25,219.44,832.2,218,837.5,218z M837.39,229.43c-5.25,0-9.67,1.98-13.25,5.93
		c-3.58,3.95-5.37,8.97-5.37,15.06c0,6.79,2.25,12.16,6.76,16.11c3.5,3.09,7.52,4.63,12.05,4.63c5.12,0,9.49-2,13.09-6.01
		c3.61-4.01,5.41-8.94,5.41-14.81c0-5.85-1.81-10.79-5.44-14.84C847,231.46,842.59,229.43,837.39,229.43z"/>
	<path class="st0" d="M905.47,219.55h10.52l13.15,42.81l13.28-42.81h10.52l9.52,61.38h-10.45l-6.09-38.77l-12.06,38.77h-9.52
		l-11.95-38.77l-6.23,38.77h-10.53L905.47,219.55z"/>
	<path class="st0" d="M971.5,219.55h30.98v11.43h-20.25v11.1h20.25v11.23h-20.25v16.15h20.25v11.48H971.5V219.55z M988.9,198.43
		h12.46l-14.12,16.36h-7.56L988.9,198.43z"/>
	<path class="st0" d="M1012.98,219.55h12.8c8.25,0,14.37,1.1,18.38,3.32c4.01,2.21,7.31,5.8,9.91,10.79
		c2.6,4.98,3.89,10.79,3.89,17.44c0,4.73-0.73,9.08-2.18,13.04c-1.45,3.96-3.45,7.25-6.01,9.87c-2.56,2.61-5.33,4.42-8.31,5.42
		c-2.98,1-8.15,1.5-15.5,1.5h-12.99V219.55z M1023.71,230.81v38.73h5.02c4.94,0,8.52-0.61,10.74-1.84c2.22-1.23,4.05-3.29,5.46-6.18
		c1.41-2.9,2.12-6.46,2.12-10.7c0-6.52-1.69-11.57-5.05-15.16c-3.04-3.23-7.91-4.84-14.62-4.84H1023.71z"/>
	<path class="st0" d="M1067.89,219.55h10.73v61.38h-10.73V219.55z"/>
	<path class="st0" d="M1143.32,230.33l-7.55,7.79c-5.14-5.87-10.92-8.81-17.35-8.81c-5.42,0-9.99,2-13.7,6.02
		c-3.72,4.01-5.57,8.95-5.57,14.82c0,4.1,0.82,7.73,2.46,10.9c1.65,3.17,3.98,5.67,6.98,7.48c3,1.81,6.35,2.72,10.02,2.72
		c3.14,0,6-0.64,8.6-1.9c2.59-1.26,5.45-3.57,8.55-6.91l7.33,8.26c-4.2,4.43-8.16,7.49-11.89,9.21c-3.73,1.71-7.99,2.57-12.77,2.57
		c-8.82,0-16.04-3.03-21.66-9.08c-5.62-6.05-8.43-13.81-8.43-23.26c0-6.12,1.27-11.56,3.83-16.32c2.56-4.76,6.23-8.58,11-11.48
		c4.77-2.89,9.91-4.34,15.41-4.34c4.68,0,9.19,1.07,13.52,3.21C1136.45,223.35,1140.19,226.39,1143.32,230.33z"/>
	<path class="st0" d="M1179.96,218c8.04,0,14.94,3.14,20.72,9.43c5.78,6.29,8.67,13.95,8.67,22.99c0,8.96-2.85,16.54-8.56,22.75
		c-5.7,6.2-12.61,9.3-20.75,9.3c-8.52,0-15.6-3.18-21.23-9.56c-5.64-6.37-8.46-13.94-8.46-22.7c0-5.87,1.31-11.27,3.94-16.19
		c2.62-4.92,6.24-8.83,10.83-11.71C1169.72,219.44,1174.66,218,1179.96,218z M1179.85,229.43c-5.25,0-9.67,1.98-13.24,5.93
		c-3.58,3.95-5.37,8.97-5.37,15.06c0,6.79,2.25,12.16,6.76,16.11c3.5,3.09,7.52,4.63,12.05,4.63c5.12,0,9.49-2,13.09-6.01
		c3.61-4.01,5.41-8.94,5.41-14.81c0-5.85-1.82-10.79-5.45-14.84C1189.47,231.46,1185.05,229.43,1179.85,229.43z"/>
	<path class="st1" d="M521.83,368.34v-59.77h11.46c8.27,0,14.26,0.72,18,2.15c5.36,2.04,9.55,5.55,12.56,10.57
		c3.02,5.01,4.53,10.98,4.53,17.92c0,5.99-1.2,11.26-3.59,15.81c-2.39,4.55-5.5,7.91-9.32,10.07c-3.82,2.17-9.17,3.25-16.06,3.25
		H521.83z M527.13,362.69h6.39c7.64,0,12.94-0.51,15.89-1.55c4.16-1.46,7.43-4.09,9.8-7.89c2.38-3.8,3.57-8.45,3.57-13.95
		c0-5.77-1.29-10.69-3.87-14.78c-2.58-4.09-6.17-6.88-10.78-8.4c-3.45-1.13-9.15-1.7-17.09-1.7h-3.91V362.69z"/>
	<path class="st1" d="M579.5,308.56h31.67v5.85h-26.15v18.73h25.92V339h-25.92v23.49h25.92v5.85H579.5V308.56z"/>
	<path class="st1" d="M694.25,319.66l-4.36,3.62c-2.4-3.39-5.29-5.95-8.66-7.7c-3.37-1.75-7.07-2.62-11.1-2.62
		c-4.41,0-8.49,1.15-12.25,3.43c-3.76,2.29-6.67,5.36-8.73,9.23c-2.07,3.86-3.1,8.2-3.1,13.02c0,7.29,2.31,13.37,6.93,18.25
		c4.62,4.87,10.45,7.31,17.48,7.31c7.74,0,14.21-3.27,19.42-9.83l4.36,3.58c-2.76,3.79-6.19,6.73-10.32,8.79
		c-4.12,2.07-8.72,3.11-13.81,3.11c-9.67,0-17.29-3.48-22.88-10.44c-4.68-5.88-7.03-12.97-7.03-21.29c0-8.75,2.84-16.11,8.51-22.08
		c5.67-5.97,12.78-8.96,21.32-8.96c5.16,0,9.82,1.1,13.98,3.31C688.19,312.58,691.6,315.67,694.25,319.66z"/>
	<path class="st1" d="M705.65,308.56h5.52v25.07h28.14v-25.07h5.52v59.77h-5.52v-28.85h-28.14v28.85h-5.52V308.56z"/>
	<path class="st1" d="M757.87,308.56h5.52v59.77h-5.52V308.56z"/>
	<path class="st1" d="M776.44,308.56h5.52v54h21.26v5.77h-26.79V308.56z"/>
	<path class="st1" d="M812.4,308.56h31.67v5.85h-26.15v18.73h25.92V339h-25.92v23.49h25.92v5.85H812.4V308.56z"/>
</g>
<g>
	<polygon class="st2" points="335.94,515.9 189.33,515.9 37.98,370.83 37.98,228.2 186.56,83.8 335.94,83.8 481.78,227.52 
		481.78,371.47 480.72,372.53 	"/>
	<polygon class="st3" points="461.04,370.67 335.9,495.81 335.9,372.05 	"/>
	<polygon class="st3" points="57.38,369.98 190.79,369.98 190.79,497.87 	"/>
	<polygon class="st4" points="466.54,238.64 466.54,363.12 51.21,363.12 51.21,237.96 	"/>
	<polygon class="st4" points="199.74,99.06 325.58,99.06 325.58,500.63 199.04,500.63 	"/>
	<polygon class="st3" points="190.12,100.43 190.12,229.71 56.71,229.71 	"/>
	<polygon class="st3" points="333.82,103.17 333.82,229.71 463.1,229.71 	"/>
	<path class="st5" d="M334,518.49l-145.33-0.13L37.32,370.83V228.2L185.89,83.78h149.4l145.83,143.74v143.94l-2.36,2.35L334,518.49z
		 M191.54,508.74h140.81l141.62-140.26V230.51L332.37,90.92H188.82L44.46,231.21v136.55L191.54,508.74z"/>
	<path class="st2" d="M370.28,298.82c0,63.8-51.73,115.51-115.53,115.51c-63.8,0-115.53-51.71-115.53-115.51
		c0-63.8,51.73-115.53,115.53-115.53C318.55,183.29,370.28,235.02,370.28,298.82"/>
	<path class="st1" d="M254.5,406.91c-59.11,0-107.18-48.09-107.18-107.18c0-59.08,48.08-107.17,107.18-107.17
		c59.09,0,107.17,48.08,107.17,107.17C361.68,358.82,313.59,406.91,254.5,406.91 M254.4,200.39c-54.84,0-99.46,44.62-99.46,99.46
		c0,54.84,44.62,99.44,99.46,99.44c54.85,0,99.46-44.6,99.46-99.44C353.86,245.01,309.24,200.39,254.4,200.39"/>
	<g>
		<g>
			<path class="st6" d="M310.45,247.71c0,0,6.52,5.22,5.69,12.92c0,0,0.15-1.32,1.58-3.21l3.28,1.2c0,0-6.48-5.42-6.87-11.37"/>
			<g>
				<path class="st7" d="M261.17,471.81c0,0,14.56-308.43,14.37-313.72c-0.31-9.08-4.82-9.81-5.59-10.57
					c-0.77-0.76-21.5-3.09-27.92-6.19c-2.63-1.26-9.91-4.25-10.17,1.79c-0.26,6.05,20.5,325.09,20.5,325.09L261.17,471.81z"/>
				<path class="st7" d="M261.77,437.11c0.8,8.57-28.43,14.51-30.96,14.16c-2.77-0.38,20.49,5.44,33.76,0.2
					c8.84-3.49,23.74-24.33-5.19-36.5c0,0-9.38-3.16-11.22-6.63c-1.8-3.39,5.63-5.34,5.63-5.34c44.77-10.97,38.49-34.01,38.49-34.01
					c-0.6-16.25-32.31-23.97-32.31-23.97c-8.58-3.05-21.36-6.16-20.34-11.93c0.9-5.09,30.22-10.18,30.22-10.18
					c29.02-8.07,31.61-23.63,27.22-36.2c-5.41-15.48-45.47-28.72-45.47-28.72c-28.12-9.57-16.95-20.05-5.68-21.84
					c15.29-2.42,23.53-5.24,34.7-1.49c12.3,4.12,16.15,7.48,16.15,7.48s13.88,8.15,16.16,6.58c4.79-3.29-0.6-25.13-11.07-29.62
					c-6.57-2.81-12.52-3.17-21.24-3.59c-8.72-0.41-45.17-9.57-63.42,5.66c-12.85,10.73-29.02,43.1,19.74,58.36
					c0,0,34.4,9.27,35.2,14.61c1.43,9.54-33.03,6.03-47.27,17.89c-11.97,9.97-14.96,27.52-1.99,39.89
					c8.17,7.79,38.59,16.45,38.59,16.45s8.08,1.9,8.08,5.68c0,0,0.8,3.59-7.58,5.99c0,0-33.51,7.78-31.11,25.33
					c0,0-1,10.77,12.56,19.55C254.67,432.21,261.27,431.64,261.77,437.11z"/>
				<path class="st1" d="M304.12,225.87c0,0,0.11,0.84,0.92,1.61c0.82,0.77,0.39,2.14-0.23,2.32c-0.62,0.18-1.74-1.47-2.05-2.01
					c-0.32-0.54-1.89-1.66-1.89-1.66c-2.48-0.87-0.26-2.63,0.81-2.38C301.68,223.75,303.2,224.21,304.12,225.87z"/>
			</g>
		</g>
		<polygon class="st2" points="235.15,185.61 239.04,250.53 269.55,263.19 273.14,183.22 		"/>
		<line class="st7" x1="233.66" y1="178.24" x2="237.64" y2="250.63"/>
		<line class="st7" x1="275.14" y1="169.06" x2="270.55" y2="264.79"/>
		<polygon class="st2" points="241.63,288.93 244.42,338.39 265.96,345.36 268.56,293.91 		"/>
		<line class="st7" x1="240.84" y1="282.24" x2="243.03" y2="336.99"/>
		<line class="st7" x1="269.55" y1="293.71" x2="266.96" y2="346.76"/>
		<polygon class="st2" points="247.42,372.09 249.41,408.19 262.67,414.02 264.32,371.39 		"/>
		<line class="st7" x1="246.07" y1="371.69" x2="248.16" y2="408.34"/>
		<line class="st7" x1="265.81" y1="371.24" x2="263.87" y2="414.47"/>
	</g>
</g>
</svg>
