<?xml version="1.0" standalone="no"?>
<!DOCTYPE svg PUBLIC "-//W3C//DTD SVG 20010904//EN"
 "http://www.w3.org/TR/2001/REC-SVG-20010904/DTD/svg10.dtd">
<svg version="1.0" xmlns="http://www.w3.org/2000/svg"
 width="300.000000pt" height="119.000000pt" viewBox="0 0 300.000000 119.000000"
 preserveAspectRatio="xMidYMid meet">

<g transform="translate(0.000000,119.000000) scale(0.100000,-0.100000)"
fill="#000000" stroke="none">
<path d="M182 922 l-173 -167 0 -165 0 -165 178 -172 178 -173 170 0 170 0
173 173 172 172 0 167 0 166 -172 166 -172 166 -176 0 -175 -1 -173 -167z
m685 -4 l163 -162 0 -165 0 -166 -162 -162 -163 -163 -170 0 -170 0 -172 166
-173 166 0 158 0 158 173 166 172 166 169 0 170 0 163 -162z"/>
<path d="M390 945 l0 -116 30 16 c17 9 35 13 40 10 6 -4 10 16 10 50 0 49 2
56 18 51 9 -3 29 -8 45 -12 24 -6 27 -10 27 -50 0 -31 4 -42 13 -38 7 2 34 -6
60 -19 l47 -24 0 123 0 124 -145 0 -145 0 0 -115z"/>
<path d="M205 897 l-150 -146 121 -1 120 0 32 33 33 34 -3 113 -3 112 -150
-145z"/>
<path d="M708 913 c4 -169 -2 -163 166 -163 l131 0 -145 145 c-80 80 -147 145
-150 145 -3 0 -4 -57 -2 -127z"/>
<path d="M415 816 c-116 -55 -171 -181 -133 -307 15 -53 71 -115 128 -144 42
-21 50 -22 60 -10 17 21 30 19 30 -4 0 -11 4 -22 8 -25 5 -3 4 17 -2 44 -5 27
-7 52 -4 55 10 10 38 -7 38 -24 0 -14 2 -14 10 -1 12 19 6 23 -53 45 -73 28
-91 82 -37 113 16 9 30 21 30 26 0 5 -15 -3 -32 -17 -46 -35 -46 -83 -1 -112
37 -23 42 -53 15 -78 -17 -15 -21 -15 -60 4 -161 80 -169 315 -15 406 23 13
50 23 60 21 14 -3 11 -8 -14 -23 -58 -34 -64 -94 -14 -132 32 -24 32 -12 1 17
-34 31 -34 56 -2 93 25 28 44 21 41 -16 -4 -42 4 -53 49 -68 20 -6 53 -23 72
-36 l35 -25 -32 31 c-32 30 -44 73 -23 86 5 3 29 -5 53 -19 38 -23 43 -24 42
-8 -3 30 -16 62 -26 62 -5 0 -2 -11 7 -25 20 -31 7 -32 -45 -5 -43 21 -51 16
-51 -36 0 -22 -3 -24 -22 -18 -40 12 -48 25 -48 78 0 75 -7 80 -65 52z"/>
<path d="M560 827 c0 -7 10 -13 22 -14 32 -3 98 -53 131 -99 33 -48 45 -128
28 -192 -13 -47 -68 -115 -112 -138 -37 -19 -42 -18 -29 5 18 34 11 59 -20 78
-42 24 -40 55 5 76 19 9 35 22 35 28 0 6 -12 1 -26 -10 -36 -28 -41 -27 -36
14 4 32 1 36 -32 50 -47 20 -55 19 -49 -6 4 -13 8 -17 13 -9 4 7 17 9 34 4 26
-6 26 -7 21 -73 -6 -66 -6 -66 24 -83 19 -10 31 -25 31 -38 0 -24 -36 -63 -50
-55 -6 4 -10 -1 -10 -10 0 -39 130 20 174 78 70 91 72 204 6 300 -38 55 -160
127 -160 94z"/>
<path d="M560 785 c0 -7 11 -10 30 -7 17 2 30 5 30 7 0 2 -13 5 -30 7 -19 3
-30 0 -30 -7z"/>
<path d="M40 585 l0 -145 125 0 126 0 -16 30 c-29 55 -37 120 -22 175 8 28 18
58 22 68 7 16 -2 17 -114 17 l-121 0 0 -145z"/>
<path d="M760 727 c0 -2 7 -25 16 -51 20 -57 15 -146 -9 -195 -9 -19 -17 -36
-17 -38 0 -1 59 -3 130 -3 l130 0 0 145 0 145 -125 0 c-69 0 -125 -1 -125 -3z"/>
<path d="M480 511 c0 -5 5 -13 10 -16 6 -3 10 -2 10 4 0 5 -4 13 -10 16 -5 3
-10 2 -10 -4z"/>
<path d="M154 332 c50 -48 118 -113 151 -145 l60 -56 3 111 3 111 -33 34 -32
33 -122 0 -121 0 91 -88z"/>
<path d="M721 406 c-8 -9 -11 -56 -9 -140 l3 -126 140 140 140 140 -131 0
c-100 0 -134 -3 -143 -14z"/>
<path d="M636 348 c-22 -12 -54 -22 -73 -22 -18 -1 -33 -2 -33 -3 0 -2 9 -12
20 -23 16 -16 18 -25 10 -40 -6 -11 -15 -20 -20 -20 -6 0 -10 -12 -10 -26 0
-15 -4 -23 -11 -19 -6 4 -8 13 -5 21 3 8 1 14 -5 14 -6 0 -1 9 12 21 17 14 20
22 11 26 -7 3 -26 16 -41 29 -16 13 -36 24 -46 24 -9 0 -25 5 -36 10 -18 10
-19 6 -19 -105 l0 -115 145 0 145 0 0 125 c0 69 -1 125 -2 124 -2 0 -21 -10
-42 -21z"/>
<path d="M2370 815 c-21 -25 -1 -31 23 -7 17 18 18 22 5 22 -8 0 -21 -7 -28
-15z"/>
<path d="M1178 770 c-9 -6 -22 -26 -28 -45 -22 -67 38 -131 101 -105 16 7 29
19 29 26 0 17 -14 18 -41 4 -45 -24 -89 42 -54 80 20 22 55 26 72 9 8 -8 13
-7 18 2 18 28 -58 51 -97 29z"/>
<path d="M1331 759 c-28 -31 -34 -65 -16 -100 43 -83 158 -38 141 56 -12 61
-85 87 -125 44z m89 -28 c17 -32 12 -60 -14 -76 -31 -20 -63 -6 -72 31 -13 50
62 89 86 45z"/>
<path d="M1487 773 c-4 -3 -7 -39 -7 -80 l0 -73 35 0 c24 0 35 5 35 15 0 8 -9
15 -20 15 -18 0 -20 7 -20 65 0 60 -6 75 -23 58z"/>
<path d="M1580 701 l0 -81 40 0 c47 0 58 27 13 32 -17 2 -28 9 -28 18 0 9 11
16 28 18 34 4 36 30 2 34 -33 4 -33 22 0 26 38 5 25 26 -18 30 l-37 3 0 -80z"/>
<path d="M1706 759 c-26 -21 -35 -65 -20 -104 10 -24 60 -46 89 -39 28 7 55
39 55 66 0 14 -8 18 -35 18 -24 0 -35 -5 -35 -15 0 -8 7 -15 15 -15 20 0 19
-16 -1 -24 -9 -4 -28 1 -41 9 -18 13 -23 23 -21 47 4 41 28 56 68 41 36 -14
53 3 25 24 -27 19 -68 16 -99 -8z"/>
<path d="M1860 701 c0 -47 4 -81 10 -81 6 0 10 30 10 70 0 39 0 73 1 77 0 4
-4 9 -10 11 -7 2 -11 -24 -11 -77z"/>
<path d="M1935 755 c-37 -36 -34 -86 7 -120 54 -45 118 -10 118 64 0 73 -76
106 -125 56z m90 -29 c17 -26 11 -50 -19 -76 -24 -19 -66 12 -66 48 0 54 56
72 85 28z"/>
<path d="M2167 773 c-6 -9 -27 -120 -27 -140 0 -7 7 -13 15 -13 10 0 15 10 15
34 0 49 15 52 29 6 15 -51 37 -51 52 0 13 44 29 37 29 -12 0 -19 5 -28 16 -28
13 0 15 7 11 29 -3 15 -9 52 -13 80 -9 67 -31 65 -51 -3 -16 -54 -24 -52 -42
12 -11 39 -24 52 -34 35z"/>
<path d="M2339 772 c0 -4 -1 -40 -2 -79 l-2 -73 43 0 c31 0 42 4 42 15 0 10
-10 15 -30 15 -23 0 -30 4 -30 20 0 16 7 20 30 20 20 0 30 5 30 15 0 10 -10
15 -31 15 -38 0 -34 24 5 28 39 5 26 27 -17 29 -20 0 -37 -2 -38 -5z"/>
<path d="M2448 774 c-5 -4 -8 -40 -8 -81 l0 -73 40 0 c51 0 80 27 80 74 0 19
-8 43 -17 55 -18 22 -82 39 -95 25z m63 -34 c37 -20 19 -90 -23 -90 -15 0 -18
9 -18 50 0 52 7 58 41 40z"/>
<path d="M2589 776 c-8 -8 3 -156 12 -156 5 0 9 36 9 80 0 70 -6 91 -21 76z"/>
<path d="M2665 755 c-25 -24 -32 -65 -19 -100 16 -40 96 -53 124 -20 16 19 -5
29 -30 15 -46 -25 -95 51 -58 88 15 15 51 15 66 0 9 -9 15 -9 25 1 10 10 8 15
-7 27 -30 22 -74 17 -101 -11z"/>
<path d="M2825 755 c-31 -30 -32 -73 -5 -108 26 -32 50 -40 83 -28 32 13 60
64 51 94 -19 65 -85 87 -129 42z m90 -29 c13 -19 13 -28 4 -49 -15 -34 -36
-41 -65 -22 -26 17 -33 62 -12 83 20 20 56 14 73 -12z"/>
<path d="M1170 470 l0 -80 33 0 c63 0 100 53 77 111 -12 27 -52 49 -91 49 -17
0 -19 -9 -19 -80z m82 43 c20 -18 24 -73 6 -91 -7 -7 -27 -12 -45 -12 l-33 0
0 60 c0 58 1 60 27 60 14 0 35 -7 45 -17z"/>
<path d="M1320 470 l0 -80 41 0 c24 0 38 4 34 10 -3 6 -19 10 -36 10 -25 0
-29 4 -29 29 0 27 4 30 38 34 l37 4 -37 1 c-33 2 -38 5 -38 27 0 22 4 25 36
25 21 0 33 4 29 10 -3 6 -22 10 -41 10 l-34 0 0 -80z"/>
<path d="M1507 536 c-27 -21 -37 -67 -22 -103 19 -45 73 -58 111 -27 19 15 19
16 -1 9 -47 -17 -64 -16 -84 4 -26 26 -27 72 -3 94 22 20 73 22 90 5 9 -9 12
-9 12 0 0 29 -71 42 -103 18z"/>
<path d="M1783 470 c0 -47 2 -66 4 -42 2 23 2 61 0 85 -2 23 -4 4 -4 -43z"/>
<path d="M1832 473 l-2 -83 36 0 c21 0 33 4 29 10 -3 6 -17 10 -30 10 -23 0
-24 4 -28 73 l-3 72 -2 -82z"/>
<path d="M1924 536 c-3 -7 -4 -42 -2 -77 l3 -64 38 -3 c21 -2 37 1 37 7 0 6
-13 11 -30 11 -27 0 -30 3 -30 29 0 26 4 30 33 34 l32 4 -32 1 c-28 2 -33 6
-33 27 0 21 5 25 30 25 17 0 30 5 30 10 0 15 -70 12 -76 -4z"/>
<path d="M2314 527 c-56 -48 -18 -141 55 -135 42 4 86 52 61 68 -20 13 -50 13
-50 0 0 -5 9 -10 20 -10 25 0 26 -12 2 -33 -25 -22 -44 -21 -76 4 -50 39 -24
109 40 109 17 0 35 -5 42 -12 9 -9 12 -9 12 0 0 14 -32 32 -59 32 -11 0 -32
-11 -47 -23z"/>
<path d="M1640 470 c0 -40 4 -70 10 -70 6 0 10 16 10 35 0 33 2 35 35 35 33 0
35 -2 35 -35 0 -19 3 -35 8 -35 4 0 7 32 7 70 0 39 -3 70 -7 70 -5 0 -8 -13
-8 -30 0 -28 -3 -30 -35 -30 -32 0 -35 2 -35 30 0 17 -4 30 -10 30 -6 0 -10
-30 -10 -70z"/>
<path d="M2112 476 c-33 -70 -43 -113 -16 -63 21 38 75 39 93 1 6 -15 14 -24
17 -22 2 3 -11 39 -29 79 l-34 74 -31 -69z m36 -14 c-27 -5 -32 2 -18 29 l13
22 13 -24 c11 -22 11 -24 -8 -27z"/>
<path d="M2240 400 c0 -5 5 -10 10 -10 6 0 10 5 10 10 0 6 -4 10 -10 10 -5 0
-10 -4 -10 -10z"/>
<path d="M2470 400 c0 -5 5 -10 10 -10 6 0 10 5 10 10 0 6 -4 10 -10 10 -5 0
-10 -4 -10 -10z"/>
</g>
</svg>
