<?xml version="1.0" standalone="no"?>
<!DOCTYPE svg PUBLIC "-//W3C//DTD SVG 20010904//EN"
 "http://www.w3.org/TR/2001/REC-SVG-20010904/DTD/svg10.dtd">
<svg version="1.0" xmlns="http://www.w3.org/2000/svg"
 width="512.000000pt" height="268.000000pt" viewBox="0 0 512.000000 268.000000"
 preserveAspectRatio="xMidYMid meet">
<metadata>
Created by potrace 1.16, written by Peter Selinger 2001-2019
</metadata>
<g transform="translate(0.000000,268.000000) scale(0.100000,-0.100000)"
fill="#000000" stroke="none">
<path d="M1449 2145 c-25 -58 -33 -65 -76 -65 -64 0 -68 -9 -23 -55 40 -41 41
-42 31 -86 -17 -70 -15 -72 42 -39 l52 29 54 -30 c53 -31 54 -31 48 -7 -3 12
-9 41 -13 64 -6 39 -4 42 36 74 46 37 41 49 -20 50 -46 0 -53 6 -83 65 l-25
50 -23 -50z m111 -75 c51 0 56 -11 19 -46 -28 -27 -30 -33 -25 -76 4 -27 4
-48 0 -48 -4 0 -22 10 -41 21 -34 22 -35 22 -71 3 -21 -10 -41 -20 -45 -22 -4
-2 -5 18 -2 45 6 44 4 50 -24 77 -17 17 -31 33 -31 38 0 4 17 8 38 8 48 0 58
7 78 55 l16 40 24 -48 c23 -44 27 -47 64 -47z"/>
<path d="M960 1000 c0 -691 -1 -684 59 -714 24 -13 67 -16 224 -16 151 0 197
-3 213 -14 14 -11 22 -12 33 -3 9 8 85 14 221 17 190 5 210 7 230 25 50 45 50
41 50 710 l0 625 -515 0 -515 0 0 -630z m1005 -18 l0 -634 -33 -29 -32 -29
-193 0 c-150 0 -197 -3 -212 -14 -17 -12 -22 -12 -39 0 -16 11 -64 14 -214 14
-113 0 -201 4 -213 10 -10 6 -27 25 -36 43 -17 29 -18 82 -21 641 -1 335 0
616 2 623 5 11 96 13 498 11 l493 -3 0 -633z"/>
<path d="M1010 1275 l0 -304 152 -3 c110 -2 152 -6 156 -15 3 -10 -32 -13
-152 -13 l-156 0 0 -275 c0 -293 3 -316 49 -334 14 -6 110 -12 214 -13 l187
-3 0 238 c0 204 2 237 15 237 13 0 15 -33 15 -237 l0 -238 200 5 c191 5 200 6
222 28 23 22 23 26 26 307 l3 285 -155 0 c-132 0 -156 2 -156 15 0 13 24 15
155 15 l155 0 0 305 0 305 -225 0 -225 0 0 -234 c0 -199 -2 -235 -15 -240 -13
-5 -15 25 -15 234 l0 240 -225 0 -225 0 0 -305z m196 243 c-4 -29 -10 -55 -12
-58 -3 -2 -34 -5 -70 -5 -54 0 -64 -3 -64 -17 0 -10 7 -18 16 -18 10 0 14 -6
11 -14 -3 -7 -15 -46 -27 -85 -11 -39 -23 -71 -25 -71 -3 0 -5 72 -5 160 l0
160 91 0 92 0 -7 -52z m234 -181 l0 -232 -42 -20 c-29 -14 -50 -34 -66 -63
l-23 -42 -142 0 -142 0 0 129 0 129 28 -24 c36 -30 59 -30 92 -1 l27 23 -31
88 c-17 48 -31 89 -31 92 0 2 18 4 40 4 l40 0 0 -140 c0 -133 -1 -140 -20
-140 -26 0 -26 -16 1 -30 18 -10 20 -19 17 -63 l-3 -52 40 0 40 0 -3 52 c-3
44 -1 54 17 65 26 16 27 28 1 28 -19 0 -20 7 -20 94 0 51 -3 114 -6 140 l-7
46 42 0 c22 0 41 -4 41 -10 0 -19 -44 -145 -53 -151 -15 -10 12 -49 40 -60 19
-7 35 -6 55 2 32 13 56 48 41 58 -11 6 -53 126 -53 148 0 7 7 13 16 13 9 0 14
7 12 16 -2 13 -17 17 -71 19 -37 1 -69 4 -71 6 -2 2 -6 28 -8 57 l-5 52 103 0
104 0 0 -233z m490 -62 l0 -295 -149 0 -150 0 -23 42 c-15 27 -39 51 -66 66
l-42 23 0 230 0 229 215 0 215 0 0 -295z m-350 -231 c35 -41 45 -72 36 -122
-16 -101 -126 -151 -217 -100 -106 59 -88 225 29 262 13 5 22 3 22 -3 0 -6 -6
-11 -14 -11 -27 0 -76 -51 -86 -91 -22 -79 43 -159 129 -159 52 0 107 45 117
97 14 76 -37 153 -103 153 -25 0 -31 15 -10 23 22 8 66 -14 97 -49z m193 -298
c26 -8 27 -11 27 -75 l0 -66 -90 3 -90 3 0 59 c0 55 2 61 27 74 29 15 78 15
126 2z m47 -163 c0 -17 -36 -43 -59 -44 -23 0 -24 -1 -6 -8 15 -6 29 0 58 26
22 19 42 32 45 28 4 -4 -15 -27 -42 -51 -27 -25 -46 -47 -43 -51 4 -3 26 16
51 43 57 63 72 50 17 -15 l-41 -49 -56 15 c-31 8 -58 12 -61 9 -2 -2 20 -10
50 -17 39 -8 57 -17 60 -30 3 -11 2 -21 -1 -23 -14 -7 -256 79 -260 93 -4 11
2 13 25 8 90 -18 89 -18 68 -7 -15 8 -10 9 25 5 44 -5 43 -4 -14 13 -58 17
-86 41 -49 43 16 0 16 1 -2 9 -13 5 27 9 108 9 70 1 127 -2 127 -6z"/>
<path d="M1557 1505 c15 -10 40 -26 57 -35 18 -9 32 -24 34 -37 4 -26 0 -28
-29 -10 -17 10 -22 9 -35 -8 -13 -18 -12 -21 10 -38 22 -16 25 -23 20 -61 -6
-38 -3 -45 17 -60 13 -9 34 -16 46 -16 30 0 57 -42 49 -76 -8 -31 8 -54 39
-54 26 0 40 -14 49 -53 7 -28 49 -57 63 -43 4 4 0 21 -10 37 -9 17 -17 44 -17
60 0 22 -6 30 -25 35 -31 8 -49 38 -41 70 9 33 -10 64 -38 64 -15 0 -33 12
-50 34 -22 30 -24 38 -15 64 6 17 9 47 7 68 -4 52 -52 86 -115 82 l-43 -3 27
-20z"/>
<path d="M2932 870 c-71 -44 -95 -143 -49 -211 58 -88 237 -110 249 -31 l4 30
-27 -29 c-29 -31 -59 -36 -106 -18 -66 25 -99 90 -87 170 10 63 41 89 104 89
59 0 87 -12 100 -43 8 -18 9 -14 7 18 l-2 40 -80 3 c-66 2 -86 -1 -113 -18z"/>
<path d="M2163 833 c16 -4 18 -16 15 -123 l-3 -118 50 -6 c136 -16 229 79 179
181 -28 56 -70 73 -174 72 -47 -1 -77 -3 -67 -6z m140 -19 c44 -10 67 -48 67
-111 0 -44 -4 -58 -25 -79 -21 -21 -33 -25 -73 -22 l-47 3 -3 104 c-3 107 3
126 38 116 8 -2 27 -7 43 -11z"/>
<path d="M3233 829 c14 -8 17 -25 17 -105 0 -52 -5 -104 -10 -115 -10 -17 -7
-19 22 -19 l33 0 -3 65 -4 65 67 0 67 0 -4 -65 -3 -65 35 1 c19 0 29 3 23 6
-9 3 -13 37 -13 118 0 81 4 115 13 118 6 3 -8 5 -33 5 -25 0 -39 -2 -32 -5 7
-3 12 -24 12 -54 l0 -49 -65 0 -65 0 0 49 c0 30 5 51 13 54 6 3 -10 6 -38 6
-39 0 -46 -2 -32 -10z"/>
<path d="M3998 831 c10 -6 12 -37 10 -125 l-3 -117 70 3 c61 3 70 6 73 23 4
19 3 19 -10 2 -9 -13 -24 -18 -43 -15 -29 3 -30 5 -33 60 -3 54 -2 56 21 54
13 -2 29 -6 34 -9 8 -5 23 12 23 27 0 1 -18 0 -40 -2 l-40 -4 0 46 c0 46 0 46
34 46 19 0 37 -6 39 -12 3 -7 6 -3 6 10 1 21 -3 22 -76 22 -46 0 -73 -4 -65
-9z"/>
</g>
</svg>
