<?xml version="1.0" standalone="no"?>
<!DOCTYPE svg PUBLIC "-//W3C//DTD SVG 20010904//EN"
 "http://www.w3.org/TR/2001/REC-SVG-20010904/DTD/svg10.dtd">
<svg version="1.0" xmlns="http://www.w3.org/2000/svg"
 width="368.000000pt" height="137.000000pt" viewBox="0 0 368.000000 137.000000"
 preserveAspectRatio="xMidYMid meet">

<g transform="translate(0.000000,137.000000) scale(0.100000,-0.100000)"
fill="#000000" stroke="none">
<path d="M870 1150 l0 -82 -36 22 c-48 31 -106 23 -148 -19 -30 -30 -31 -34
-31 -119 0 -97 15 -130 68 -153 35 -15 103 -6 128 17 17 16 19 16 19 1 0 -13
9 -17 39 -17 l40 0 -2 213 -2 212 -37 3 -38 3 0 -81z m-24 -121 c14 -16 19
-36 19 -79 0 -85 -44 -123 -105 -90 -40 21 -47 114 -14 168 19 29 73 30 100 1z"/>
<path d="M1097 1090 c-30 -24 -37 -25 -37 -5 0 10 -11 15 -35 15 l-35 0 0
-215 0 -215 35 0 35 0 0 73 c0 41 3 76 6 80 4 3 19 -3 34 -15 35 -25 109 -21
142 8 48 43 64 153 31 221 -32 68 -122 95 -176 53z m79 -48 c35 -23 44 -98 20
-157 -14 -32 -19 -35 -54 -35 -30 0 -43 5 -54 23 -45 68 -14 177 51 177 14 0
31 -4 37 -8z"/>
<path d="M330 985 c0 -85 4 -124 15 -146 27 -51 95 -64 153 -29 39 24 42 24
42 5 0 -10 11 -15 35 -15 l35 0 0 150 0 150 -35 0 -35 0 0 -67 c0 -137 -23
-187 -83 -181 -45 4 -57 35 -57 151 l0 97 -35 0 -35 0 0 -115z"/>
<path d="M1670 1004 c-79 -171 -93 -204 -87 -210 10 -11 29 8 43 43 l15 34 72
-3 c72 -3 72 -3 92 -40 18 -35 54 -55 42 -25 -16 43 -122 274 -128 281 -4 5
-26 -31 -49 -80z m99 -101 c1 -9 -17 -13 -59 -13 l-60 0 14 33 c7 17 22 49 32
71 l19 38 27 -58 c14 -33 27 -65 27 -71z"/>
<path d="M1965 1075 c-150 -53 -110 -285 48 -285 40 0 107 26 107 41 0 17 -21
20 -42 5 -28 -20 -81 -20 -118 -1 -66 34 -78 130 -24 186 37 38 84 47 135 24
40 -18 57 -16 44 5 -9 15 -68 40 -92 40 -10 -1 -36 -7 -58 -15z"/>
<path d="M2899 1024 c-63 -139 -99 -222 -99 -228 0 -3 6 -6 14 -6 8 0 20 16
27 35 15 41 31 47 109 43 52 -3 56 -5 75 -40 11 -21 26 -38 33 -38 6 0 12 2
12 5 0 9 -123 280 -131 289 -5 5 -22 -21 -40 -60z m90 -121 c1 -9 -17 -13 -59
-13 l-60 0 26 58 c14 31 29 64 32 72 6 14 59 -89 61 -117z"/>
<path d="M1392 938 c2 -102 6 -143 16 -146 9 -3 12 13 12 57 l0 61 65 0 c50 0
65 3 65 15 0 10 -16 15 -62 17 l-63 3 0 55 0 55 73 3 c104 4 90 22 -18 22
l-91 0 3 -142z"/>
<path d="M2180 975 c0 -148 22 -185 107 -185 45 0 77 20 98 60 21 40 22 230 1
230 -11 0 -15 -24 -18 -110 -3 -94 -6 -112 -23 -129 -33 -32 -85 -31 -115 1
-18 19 -20 35 -20 130 0 89 -3 108 -15 108 -12 0 -15 -18 -15 -105z"/>
<path d="M2480 935 l0 -145 75 0 c60 0 75 3 75 15 0 12 -13 15 -60 15 l-60 0
0 130 c0 109 -2 130 -15 130 -13 0 -15 -23 -15 -145z"/>
<path d="M2620 1071 c0 -6 17 -11 38 -13 l37 -3 3 -132 c2 -108 5 -133 17
-133 12 0 15 25 17 133 l3 132 38 3 c20 2 37 7 37 13 0 5 -42 9 -95 9 -53 0
-95 -4 -95 -9z"/>
<path d="M3110 934 l0 -147 78 5 c93 5 122 22 153 84 34 72 14 143 -54 184
-24 15 -50 20 -104 20 l-73 0 0 -146z m170 98 c35 -26 54 -86 40 -127 -18 -54
-52 -78 -120 -83 l-60 -4 0 114 c0 63 3 118 8 122 12 13 105 -3 132 -22z"/>
<path d="M330 435 l0 -145 65 0 c89 0 136 24 165 85 16 33 20 53 15 77 -20 93
-68 128 -174 128 l-71 0 0 -145z m176 81 c29 -29 34 -41 34 -81 0 -40 -5 -52
-34 -81 -31 -31 -40 -34 -90 -34 l-56 0 0 115 0 115 56 0 c50 0 59 -3 90 -34z"/>
<path d="M640 435 l0 -145 91 0 c68 0 90 3 87 13 -3 8 -30 13 -77 15 l-72 3 3
51 3 51 59 1 c38 1 61 6 64 14 3 9 -14 12 -63 12 l-66 0 3 53 3 52 70 1 c41 1
71 6 73 13 3 8 -24 11 -87 11 l-91 0 0 -145z"/>
<path d="M970 435 c0 -122 2 -145 15 -145 12 0 15 13 15 55 l0 55 55 0 c71 0
105 28 105 87 -1 67 -37 93 -129 93 l-61 0 0 -145z m138 99 c26 -18 29 -60 5
-86 -11 -13 -30 -18 -65 -18 l-48 0 0 60 0 60 43 0 c23 0 53 -7 65 -16z"/>
<path d="M1220 560 c-25 -25 -27 -81 -2 -102 9 -9 41 -28 70 -42 49 -25 53
-29 50 -59 -4 -43 -41 -57 -88 -33 -40 20 -50 20 -50 3 0 -19 44 -37 89 -37
51 0 84 27 84 68 0 40 -15 58 -77 89 -57 29 -66 38 -66 71 0 32 41 50 82 34
37 -14 59 -4 33 15 -29 20 -101 17 -125 -7z"/>
<path d="M1434 567 c-2 -7 -3 -71 -2 -142 2 -92 7 -130 16 -133 9 -3 12 30 12
142 0 94 -4 146 -10 146 -6 0 -13 -6 -16 -13z"/>
<path d="M1593 559 c-63 -40 -83 -150 -37 -212 42 -57 147 -76 198 -36 38 30
23 41 -26 19 -46 -20 -81 -18 -118 9 -60 43 -66 134 -11 183 44 40 75 45 126
20 40 -19 55 -20 55 -1 0 5 -13 15 -30 24 -42 22 -118 19 -157 -6z"/>
<path d="M1886 561 c-91 -60 -89 -200 4 -254 40 -24 111 -24 152 0 92 54 95
199 5 253 -42 26 -122 27 -161 1z m151 -26 c33 -22 56 -80 48 -121 -3 -18 -19
-46 -35 -62 -77 -77 -203 -26 -203 82 0 100 105 156 190 101z"/>
<path d="M2180 435 l0 -145 81 0 c60 0 80 3 77 13 -3 7 -28 13 -66 15 l-62 3
0 129 c0 109 -2 130 -15 130 -13 0 -15 -23 -15 -145z"/>
<path d="M2434 570 c-29 -11 -62 -55 -75 -100 -13 -42 0 -100 30 -134 43 -49
131 -61 189 -26 91 55 96 172 12 244 -26 21 -41 26 -83 25 -29 0 -62 -4 -73
-9z m153 -54 c45 -49 46 -110 3 -160 -93 -106 -259 9 -195 135 40 77 134 89
192 25z"/>
<path d="M2759 557 c-44 -29 -64 -70 -63 -129 1 -53 21 -90 67 -119 25 -16 45
-19 93 -17 79 5 94 17 94 79 l0 49 -45 0 c-33 0 -45 -4 -45 -15 0 -10 10 -15
30 -15 27 0 30 -3 30 -30 0 -24 -5 -31 -27 -36 -16 -3 -34 -7 -41 -10 -7 -2
-30 3 -52 12 -55 22 -86 85 -70 143 20 74 92 107 160 73 46 -23 67 -10 30 20
-33 27 -117 25 -161 -5z"/>
<path d="M3020 436 c0 -124 2 -146 15 -146 13 0 15 20 13 142 -2 102 -6 143
-15 146 -10 3 -13 -30 -13 -142z"/>
<path d="M3152 442 c-34 -77 -62 -142 -62 -145 0 -4 6 -7 14 -7 8 0 20 16 27
35 l13 35 79 0 78 0 15 -35 c8 -19 21 -35 29 -35 8 0 15 3 14 8 -1 18 -125
276 -134 279 -6 2 -38 -59 -73 -135z m108 10 c13 -29 20 -55 17 -58 -2 -3 -29
-4 -59 -2 l-55 3 29 64 c17 38 32 61 37 55 5 -5 19 -33 31 -62z"/>
</g>
</svg>
