<?xml version="1.0" encoding="utf-8"?>
<!-- Generator: Adobe Illustrator 16.0.0, SVG Export Plug-In . SVG Version: 6.00 Build 0)  -->
<!DOCTYPE svg PUBLIC "-//W3C//DTD SVG 1.1//EN" "http://www.w3.org/Graphics/SVG/1.1/DTD/svg11.dtd">
<svg version="1.1" id="Capa_1" xmlns="http://www.w3.org/2000/svg" xmlns:xlink="http://www.w3.org/1999/xlink" x="0px" y="0px"
	 width="960px" height="560px" viewBox="0 0 960 560" enable-background="new 0 0 960 560" xml:space="preserve">
<g>
	<path fill="#FFFFFF" d="M472.884,487.54c-4.014-4.364-10.747-6.092-16.813-5.865c0,0-68.309,0.042-71.3-0.008
		c-17.33-0.874-23.717-16.067-23.717-29.916l0.033-264.162h221.908c0.016,16.731,0.229,265.694,0.037,267.506
		c-0.75,12.222-8.184,23.883-20.943,26.269c-1.871,0.351-73.43,0.312-73.43,0.312C482.965,481.675,476.808,482.831,472.884,487.54z"
		/>
	<g>
		<path fill="#4FB15C" d="M371.714,198.076h96.472v105.331c-14.844,1.604-26.717,12.009-28.873,26.679h-67.599V198.076z"/>
		<path fill="#FDD339" d="M475.63,198.076h96.973v132.32h-68.366c-2.019-14.714-13.804-25.211-28.606-26.954V198.076z"/>
		<path fill="#FC2A1F" d="M371.647,337.639h67.887c0.534,16.409,13.127,29.216,29.206,30.954v105.088c0,0-4.85-2.481-16.941-2.481
			h-52.98c-18.803,0-27.172-4.098-27.172-27.854V337.639z"/>
		<path fill="#1F6AA1" d="M572.893,337.639v105.707c0,25.965-8.369,27.854-27.172,27.854h-52.98
			c-12.092,0-15.834,3.035-15.834,3.035V368.537c15.849-1.95,27.091-14.653,27.618-30.898H572.893z"/>
	</g>
	<path fill="#FFFFFF" d="M377.802,270.57h26.57c0,0-1.959,7.907-12.145,7.907C382.04,278.477,377.802,270.57,377.802,270.57z
		 M384.569,226.286l4.618,1.77l25.811-2.687l2.607-17.534l3.53,17.534l25.811,2.687l4.618-1.77l0.57,3.289h-30.559l1.14,24.861
		v40.995h8.287l-9.047,6.957l0.57,15.755c0,0,2.279,1.39,2.279,3.099c0,1.711-2.659,2.09-2.659,2.09h-3.539h-1.08h-3.538
		c0,0-2.659-0.379-2.659-2.09c0-1.709,2.279-3.099,2.279-3.099l0.57-15.755l-9.047-6.957h8.287v-40.995l1.14-24.861H384
		L384.569,226.286z M457.746,270.57c0,0-4.238,7.907-14.425,7.907c-10.187,0-12.146-7.907-12.146-7.907H457.746z M394.54,353.735
		l3.857,0.4l-3.444,3.026l1.077,4.237l-3.794-2.038l-3.867,2.157l0.781-4.263l-3.198-3.163l4-0.335l2.297-4.42L394.54,353.735z
		 M386.938,425.59l64.646-0.048v27.747c-3.785-1.589-2.521-3.478-5.538-4.947l-0.856-0.399c-0.27-0.124-2.782-0.716-2.782-1.144
		l0-14.007h-50.013c-0.612,0-1.672-2.614-2.022-3.063C389.313,428.374,386.746,427.51,386.938,425.59z M445.257,392.056
		c7.588,6.832,8.2,18.521,1.369,26.107c-6.832,7.587-18.52,8.2-26.107,1.368c-7.587-6.832-8.2-18.521-1.368-26.107
		C425.981,385.837,437.67,385.226,445.257,392.056z M389.483,419.147l4.264-19.09c0.388-1.722,0.759-2.593,2.072-2.717
		c1.324-0.122,1.616,0.96,1.783,1.906l3.571,19.283l-5.405-12.566L389.483,419.147z M472.698,65.678l11.533,22.174l22.336,2.368
		l-17.305,17.302l4.439,23.072l-21.004-11.235l-20.855,11.235l3.552-23.516L438.385,90.22L460.563,88L472.698,65.678z
		 M489.956,415.234l9.261-5.979l-0.001-25.353h4.609v-3.618c0,0,0.648,0.045,1.29,0.116c4.543,0.513,8.814-4.301,13.217-4.663
		c-0.61-1.15-1.299-3.227-1.299-4.654c0-4.229,1.456-6.496,4.413-9.067c0.946-0.692,1.228,1.082,0.795,2.093
		c-0.754,1.759,3.103,3.318,2.599-1.011c-0.247-2.115-2.211-3.337-3.032-5.123c-0.109-0.238-0.649-1.228-0.649-1.228
		s1.181,0.661,1.949,1.011c4.903,2.233,9,5.819,5.919,11.546c1.979,1.283,2.461,4.147,1.731,6.434
		c4.149,0.921,7.953,5.134,12.591,4.643c0.663-0.07,1.535-0.241,1.535-0.241v3.764h4.507v25.475l6.64,0.722
		c0.427,0.02,1.231,1.57,1.231,1.57c0.351,1.538,0.322,3.234,0.151,4.792c0.771,0.13,7.081,1.132,7.723,1.877
		c1.475,1.712,0.608,6.771-0.361,8.226c-0.384,0.576-21.302,27.012-21.302,27.012l-58.425-19.352v-8.166l-3.115-1.009l11.055-5.99
		l0.072-2.814L489.956,415.234z M543.488,291.878c0.592-0.029,1.195-0.049,1.638-0.041c6.982,0.118,9.429,3.606,8.089,10.382
		c-0.18,0.902-0.504,2.06-0.799,3.287l7.91,12.133c1.464,1.88-0.561,4.969-2.887,3.206l-1.521-1.603
		c-0.316,0.127-1.183,0.098-1.684,0c-3.688-0.723-6.163-4.901-6.412-9.057c-0.044-0.717-0.508-3.542-0.482-4.088l-6.464-8.708
		c-0.711,0.154-5.371,0.883-5.371,0.883c-8.534-0.271-7.611-6.141-7.294-8.656c0.191-1.518,1.271-4.597,2.324-7.104l-9.109-12.823
		c-1.089,0.084-11.783,1.522-16.003-3.338c-4.248-4.891-1.866-13.128,0.32-18.965c-1.251-1.888-5.3-7.746-5.531-7.855
		c-0.636-0.301-3.084,1.881-4.488-1.041c-1.278-2.658,3.126-7.266,3.126-7.266c2.76-4.601,7.778,3.595,10.151,7.505
		c2.565-6.972,4.388-15.412-3.258-19.126c-0.462-0.225-1.511-0.658-1.684-0.722c-2.379-0.043-4.01-0.042-6.012-1.442l-2.163-1.362
		c-1.043-0.883-6.734-3.207-4.891-5.343c2.571-2.977,9.634-1.478,12.512-0.518c15.005,5.001,18.08,15.343,13.939,28.639
		c-0.894,2.865-2.059,5.641-3.152,8.441l9.939,15.147c0.996,0.003,2.257,0.016,3.016,0.051c1.421,0.067,3.439,0.372,3.439,0.372
		c10.482,1.965,9.96,9.547,7.143,17c-0.171,0.451-0.657,1.04-1.042,1.924L543.488,291.878z M472.531,312.269l21.771,36.717h-43.68
		L472.531,312.269z M469.705,307.812c-0.586,0.056-2.16,0.238-3.881,0.648c-13.69,3.254-20.604,13.083-20.604,27.665
		c0,16.063,14.11,26.614,26.872,26.614c12.452,0,27.064-8.306,27.064-27.294c0-15.043-9.579-22.037-12.492-23.636
		c-2.733-1.501-5.805-3.207-9.053-2.763c-2.005,0.275-8.095,0.419-7.835,0.231c0.634-0.458,0.224-3.814-0.483-4.521l-1.059-1.529
		c5.291-1.645,12.156-1.08,17.137,1.294c10.556,5.031,19.487,16.091,19.487,30.614c0,17.604-13.387,33.01-32.43,33.01
		c-19.062,0-32.734-15.616-32.734-32.218c0-15.236,8.503-28.315,25.425-31.583l3.057-0.118c0.73,0.736,1.004,1.771,1.646,2.587
		L469.705,307.812z"/>
	<path d="M496.314,134.327l-23.736-13.448l-23.737,13.448l5.455-26.73l-20.125-18.419l27.108-3.073l11.299-24.832l11.299,24.832
		l27.107,3.073l-20.124,18.419L496.314,134.327z M491.965,128.276l-4.416-21.638l16.291-14.911l-21.942-2.487l-9.147-20.101
		l-9.146,20.101l-21.943,2.487l16.291,14.911l-4.416,21.638l19.215-10.886L491.965,128.276z M484.9,118.488l-2.793-13.684
		l10.303-9.428l-13.877-1.572l-5.783-12.711l-5.783,12.711l-13.877,1.572l10.303,9.428l-2.793,13.684l12.15-6.884L484.9,118.488z
		 M488.336,123.344l-15.586-8.83l-15.586,8.83l3.582-17.553l-13.215-12.095l17.8-2.018l7.419-16.305l7.42,16.305l17.8,2.018
		l-13.216,12.095L488.336,123.344z M521.825,135.538c1.624,1.218-0.205,3.653-1.828,2.434l-13.84-10.396
		c0.616-0.805,1.205-1.632,1.764-2.482L521.825,135.538z M565.399,131.183c1.918,0.664,0.922,3.541-0.996,2.877l-51.957-17.993
		c0.343-0.952,0.653-1.918,0.93-2.899L565.399,131.183z M489.021,44.789c0.608-1.938,3.513-1.025,2.904,0.911l-4.894,15.594
		c-0.947-0.353-1.911-0.672-2.89-0.959L489.021,44.789z M519.203,64.247c1.632-1.206,3.44,1.242,1.809,2.449l-13.799,10.195
		c-0.585-0.832-1.197-1.641-1.838-2.428L519.203,64.247z M530.834,23.071c1.231-1.614,3.651,0.232,2.422,1.847l-33.441,43.869
		c-0.773-0.656-1.571-1.285-2.39-1.886L530.834,23.071z M485.104,142.399c0.972-0.308,1.928-0.651,2.867-1.026l5.176,15.502
		c0.644,1.925-2.244,2.89-2.888,0.964L485.104,142.399z M531.619,99.187c2.03,0,2.03,3.045,0,3.045h-16.646l0.006-0.718
		c0-0.781-0.021-1.556-0.063-2.327H531.619z M496.595,136.722c0.834-0.581,1.646-1.191,2.435-1.829l32.321,43.297
		c1.214,1.626-1.225,3.448-2.439,1.822L496.595,136.722z M564.738,67.79c1.923-0.649,2.897,2.234,0.975,2.883L512.969,88.5
		c-0.31-0.971-0.651-1.927-1.026-2.866L564.738,67.79z M471.092,4.93c0-2.029,3.045-2.029,3.045,0v53.734
		c-0.682-0.032-1.367-0.049-2.057-0.049c-0.33,0-0.659,0.005-0.988,0.012V4.93z M423.329,135.538l13.904-10.444
		c0.56,0.85,1.148,1.677,1.766,2.482l-13.841,10.396C423.535,139.191,421.707,136.756,423.329,135.538z M379.756,131.183
		l52.023-18.015c0.276,0.981,0.587,1.948,0.93,2.899l-51.958,17.993C378.834,134.724,377.838,131.847,379.756,131.183z
		 M456.135,44.789l4.879,15.546c-0.979,0.287-1.942,0.606-2.891,0.959L453.23,45.7C452.622,43.764,455.527,42.852,456.135,44.789z
		 M425.953,64.247l13.827,10.216c-0.64,0.787-1.252,1.597-1.837,2.428l-13.799-10.195C422.511,65.489,424.321,63.041,425.953,64.247
		z M414.321,23.071l33.41,43.829c-0.82,0.601-1.616,1.23-2.39,1.886L411.9,24.917C410.67,23.303,413.091,21.457,414.321,23.071z
		 M460.051,142.399l-5.154,15.44c-0.643,1.925-3.531,0.961-2.888-0.964l5.176-15.502
		C458.123,141.748,459.08,142.091,460.051,142.399z M413.537,99.187h16.703c-0.041,0.771-0.062,1.546-0.062,2.327l0.005,0.718
		h-16.646C411.507,102.232,411.507,99.187,413.537,99.187z M448.56,136.722l-32.315,43.29c-1.214,1.626-3.654-0.196-2.44-1.822
		l32.322-43.297C446.915,135.53,447.727,136.141,448.56,136.722z M380.417,67.79l52.795,17.845
		c-0.375,0.939-0.718,1.895-1.026,2.866l-52.745-17.828C377.519,70.023,378.494,67.14,380.417,67.79z M471.019,144.399
		c0.353,0.009,0.706,0.013,1.062,0.013c0.665,0,1.326-0.015,1.983-0.045v38.43h-3.045V144.399z M472.765,489.703
		c-0.555-0.685-5.5-6.926-16.495-6.517c0,0-69.701,0.043-72.752-0.009c-22.851-1.151-23.822-27.258-23.822-32.53l0.034-265.542
		h225.616c0,0,0.236,267.116,0.034,269.028c-1.761,28.68-24.217,29.054-24.217,29.054h-71.227
		C476.671,483.188,473.318,489.019,472.765,489.703z M472.729,484.885c3.923-4.708,11.188-5.865,16.881-5.865h69.858
		c0,0,1.246,0.038,3.118-0.312c12.76-2.387,17.882-14.048,18.632-26.269c0.191-1.812-0.022-246.154-0.036-262.885H363.895
		l-0.032,259.541c0,13.848,4.076,29.043,21.406,29.915c2.991,0.051,39.282,0.027,62.425,0.014l8.875-0.005
		C462.635,478.794,468.715,480.52,472.729,484.885z M466.116,309.813c-1.308,0.323-2.55,0.716-3.731,1.174
		c-9.348,3.796-15.623,13.23-15.623,25.167c0,4.217,1.111,8.085,2.973,11.462l22.091-36.65c-0.896-0.045-1.787-0.251-2.692-0.747
		c-0.382-0.209-0.692-0.48-0.976-0.783C467.465,309.533,466.785,309.66,466.116,309.813z M467.189,302.232l0.029-103.333h-93.977
		V328.63h65.85c2.406-14.14,12.078-22.152,26.641-25.76C466.216,302.639,466.701,302.427,467.189,302.232z M505.956,328.63h65.887
		V198.899h-93.888v101.92c2.727,0.324,5.471,1.143,8.194,2.438C495.674,307.788,503.775,316.576,505.956,328.63z M396.177,469.678
		l0.094-0.002h58.491c4.288,0,7.968,0.389,11.973,2.006l0.484,0.201v-102.55c-16.066-2.392-27.054-15.301-28.541-29.965h-65.436
		v102.924l-0.002,6.42c0,15.55,6.994,20.966,16.76,20.966H396.177z M574.2,442.63l-0.002,6.082c0,16.604-7.816,23.318-19.113,23.318
		l-2.888,0.002l-8.053-0.002l-54.232,0.002c-5.871,0-9.269,0.579-14.314,3.376V369.613c-0.97,0.076-1.958,0.115-2.964,0.115
		c-1.036,0-2.058-0.042-3.06-0.124v105.751c0,0-1.949-1.04-2.961-1.45c-3.787-1.528-7.799-1.873-11.852-1.873h-58.491
		c-0.787,0-1.574,0.003-2.358,0L390,472.03c-11.296,0-19.113-6.714-19.113-23.318v-6.368l-0.001-105.332h67.636
		c-0.011-0.352-0.016-0.702-0.016-1.055c0-1.73,0.087-3.387,0.259-4.971h-67.879V196.543h98.688v104.889
		c1.98-0.541,3.995-0.795,6.023-0.768V196.543H574.2v134.441h-67.899c0.153,1.357,0.232,2.751,0.232,4.181
		c0,0.624-0.016,1.245-0.046,1.862H574.2V442.63z M552.691,469.678h2.394c9.767,0,16.761-5.416,16.761-20.966v-5.765l-0.003-0.313
		V339.383h-65.545c-1.699,15.104-12.467,27.661-28.343,29.967v102.539c4.115-1.809,7.959-2.213,12.411-2.213h61.831L552.691,469.678
		z M460.935,333.323c3.583-1.853,7.599-2.931,11.635-2.931c3.996,0,7.994,1.072,11.563,2.895l-11.589-19.225L460.935,333.323z
		 M487.493,338.863l-3.958,1.94c-2.955,2.618-7.239,4.273-11.155,4.273c-3.738,0-7.826-1.46-10.542-4.102l-4.24-2.116l-5.299,8.79
		h40.49L487.493,338.863z M495.406,347.703c1.729-3.419,2.758-7.49,2.758-12.229c0-11.5-6.146-20.425-16.151-24.521
		c-3.346-1.368-6.119-0.294-8.776-0.032L495.406,347.703z M451.135,349.863c4.99,7.163,13.459,11.596,21.162,11.596
		c7.843,0,16.82-3.777,21.869-11.596H451.135z M469.575,303.674l0.653,0.67l0.151,0.16l0.179,0.189c0.463,0.49,0.954,1,1.186,1.568
		c0.077,0.129,0.15,0.26,0.221,0.394c0,0-0.076,0.623-0.235,0.979c-0.098,0.216-0.218,0.419-0.356,0.609
		c-0.092,0.126-0.192,0.247-0.299,0.364c1.99,0.435,5.054-0.413,6.613-0.626c3.333-0.454,6.97,1.716,9.772,3.252
		c2.958,1.621,12.918,9.085,12.918,24.24c0,19.144-15.518,28.199-28.081,28.199c-12.887,0-27.749-11.313-27.749-27.521
		c0-13.771,6.307-21.122,12.69-24.976c5.383-3.248,10.754-3.976,12.256-4.121l0.027-0.154c-0.617-0.78-1.324-1.48-2.025-2.184
		l-1.739,0.335c-16.857,3.249-25.038,15.743-25.038,30.903c0,16.506,12.923,31.558,31.915,31.558
		c18.97,0,31.686-14.838,31.686-32.35c0-14.44-8.598-24.902-19.121-29.907C480.384,302.968,474.724,302.174,469.575,303.674z
		 M465.68,341.078c-0.797-1.254-1.258-2.741-1.258-4.337c0-0.962,0.168-1.884,0.475-2.74c-2.011,0.731-3.926,1.724-5.666,2.921
		l-0.232,0.161l4.164,2.079c0,0,0.336,0.352,0.709,0.663C464.436,340.294,465.041,340.713,465.68,341.078z M480.211,333.992
		c0.309,0.858,0.478,1.784,0.478,2.749c0,1.532-0.425,2.963-1.162,4.186c1.017-0.559,1.953-1.224,2.747-1.973l3.877-1.877
		l-0.179-0.124C484.204,335.74,482.257,334.732,480.211,333.992z M467.814,333.204c-0.74,0.985-1.178,2.209-1.178,3.537
		c0,3.26,2.647,5.904,5.919,5.904c3.271,0,5.918-2.645,5.918-5.904c0-1.347-0.459-2.546-1.218-3.539
		c-1.519-0.354-3.111-0.541-4.668-0.541C470.987,332.661,469.373,332.844,467.814,333.204z M443.251,240.789l-9.3,28.365h9.3
		V240.789z M431.611,269.154l11.64-34.114v-3.962h-21.202c0.411,4.314,0.776,8.547,1.029,12.245
		c1.036,15.152,0.521,45.212,0.401,51.401h8.005c1.353,0,1.742,1.251,0.629,2.019l-8.792,6.067
		c0.046,2.289,0.238,10.659,0.669,15.427c1.369,0.708,2.214,1.137,2.192,3.021c-0.029,2.468-2.282,3.358-4.297,3.189h-4.8
		l-3.172-0.002c0,0-0.255-0.006-0.61-0.064c-3.626-0.588-4.707-5.092-1.104-6.116c0.294-4.632,0.347-13.17,0.356-15.457l-8.65-6.07
		c-1.103-0.773-0.712-2.014,0.636-2.014h7.558c-0.133-6.333-0.725-37.593,0.244-51.35c0.259-3.68,0.642-7.984,1.075-12.4h-21.142
		v4.094l11.632,34.092h2.564c0,0-0.747,2.087-1.274,2.984c-3.05,5.193-8.581,7.654-14.584,7.654
		c-7.332,0-12.115-4.524-14.858-10.639h2.671l11.635-34.1v-4.086h-6.689c-2.021,0-0.591-4.394-0.45-5.109
		c0.719-3.625,4.466,0.498,5.384,1.173c1.676,0.279,7.408-0.559,8.92-0.758c4.791-0.628,10.107-1.422,12.846-1.615
		c0.477-0.035,3.268-0.287,4.088-0.971c1.219-11.489,2.5-21.828,2.5-21.828c0.185-1.495,2.014-1.494,2.197,0.002
		c0,0,1.267,10.347,2.468,21.952c0.856,0.667,3.589,0.915,4.061,0.947c6.412,0.454,12.748,1.832,19.161,2.33
		c0.818,0.064,1.781,0.182,2.605,0.045c1.034-0.76,2.336-2.412,3.632-2.566c2.216-0.264,2.193,3.825,2.398,5.235
		c0.102,0.701-0.387,1.267-1.096,1.267h-6.621v3.953l11.643,34.124h2.692c0,0-0.964,2.147-1.521,3.02
		c-2.94,4.607-7.671,7.619-13.339,7.619c-7.759,0-13.363-3.667-15.858-10.639H431.611z M454.768,269.154l-9.303-28.372v28.372
		H454.768z M380.765,269.16h9.296v-28.351L380.765,269.16z M392.274,269.16h9.292l-9.292-28.342V269.16z M403.073,271.374h-23.678
		c2.548,3.758,6.478,6.21,11.218,6.21C395.676,277.584,400.348,275.661,403.073,271.374z M450.507,227.159
		c-1.004,0.81-2.126,1.353-2.602,1.704h2.89C450.714,228.353,450.613,227.747,450.507,227.159z M441.785,228.863
		c-4.968-0.622-11.57-1.535-16.555-1.887c-1.601-0.112-2.777-0.343-3.646-0.625l0.25,2.512H441.785z M419.736,230.163
		c-0.327-3.571-0.802-13.731-0.871-14.885c-0.068-1.153-0.215-1.88-0.215-1.88l0.222,81.326l2.392-0.001
		c0.119-6.068,0.639-36.12-0.396-51.249C420.595,239.473,420.189,234.844,419.736,230.163z M384.95,227.057
		c-0.106,0.587-0.207,1.192-0.288,1.702h2.89C387.076,228.408,385.955,227.865,384.95,227.057z M393.672,228.759h19.963l0.258-2.522
		c-0.878,0.288-2.064,0.522-3.666,0.635C405.242,227.224,398.64,228.138,393.672,228.759z M414.436,317.939h7.306
		c-0.373-4.485-0.558-11.574-0.621-14.431h-6.356C414.749,306.406,414.685,313.582,414.436,317.939z M422.932,320.153h-9.557
		c-0.33,0.148-0.7,0.253-1.065,0.475c-0.363,1.142,0.75,1.563,1.651,1.603l3.125,0.003h4.852l0.122,0.007
		c0,0,0.138,0.014,0.343,0.01c1.303-0.025,2.256-1.248,1.207-1.767C423.37,320.364,423.142,320.263,422.932,320.153z
		 M414.252,301.294h7.366l6.313-4.356h-19.887L414.252,301.294z M416.658,294.724l0.226-81.28c0,0-0.096,0.871-0.232,2.248
		c-0.137,1.376-0.896,14.344-0.918,14.335c-0.478,4.799-0.904,9.518-1.184,13.503c-0.967,13.737-0.37,44.99-0.239,51.193
		L416.658,294.724z M432.48,271.369c2.725,4.288,7.397,6.21,12.46,6.21c4.431,0,8.853-2.498,11.274-6.21H432.48z M553.077,308.09
		c-0.153,1.269-0.114,2.441,0.33,3.29c0.97,1.859,1.948,3.707,2.952,5.544l2.003,2.954c0,0,0.737,0.486,1.378,0.198
		c0.642-0.288,0.551-1.192,0.551-1.192L553.077,308.09z M550.272,299.824l-0.002,0.168c-0.032,1.8-0.526,3.81-0.777,5.297
		c-0.049,0.47-0.101,1.018-0.149,1.569c-0.141,2.524,0.037,4.75,1.334,7.175c1.42,2.657,2.838,3.609,3.729,3.96l-0.366-0.681
		c-1.296-2.149-2.578-4.184-3.058-6.477c-0.208-0.782-0.258-1.473-0.19-2.241c0.008-0.195,0.022-0.394,0.043-0.593
		c0.051-0.474,0.123-0.905,0.191-1.307c0.127-0.749,0.922-3.598,1.045-4.037c0.09-0.398,0.182-0.818,0.276-1.267
		c1.2-5.686-0.567-7.84-6.281-7.983l1.53,2.34C549.695,296.183,550.275,297.864,550.272,299.824z M500.738,238.271
		c1.628,0.771,4.478,5.381,5.463,6.855l2.063-5.428c-1.141-1.792-4.725-7.964-7.078-8.67c-0.171,0.017-0.344,0.124-0.378,0.14
		c-0.213,0.237-0.357,0.557-0.544,0.816c-0.618,0.859-3.778,4.35-3.105,5.75C497.801,239.075,499.132,237.51,500.738,238.271z
		 M516.554,263.73c-5.334-0.386-7.371-5.178-5.915-10.075l1.238-3.522c0.572-1.633,1.234-3.267,1.913-4.908l0.257-0.659
		c2.234-5.345,4.535-10.803,4.368-16.611c-0.184-6.401-3.757-12.61-14.385-16.184c-1.888-0.634-9.819-2.278-11.764-0.211
		c0.484,0.996,5.081,3.818,6.298,4.668c1.719,1.202,3.772,1.367,5.821,1.385c0,0,0.72,0.229,1.549,0.633
		c12.256,5.965,5.713,18.332,2.463,27.527c0,0-2.602,6.986-3.187,8.756c-3.181,9.626,2.478,13.924,11.488,14.248
		c1.379,0.048,2.492,0.053,3.334,0.04l-2.742-4.037L516.554,263.73z M537.525,293.804c-2.441-0.309-3.785-2.432-3.531-4.856
		c0.574-5.459,4.222-9.949,4.925-15.389c0.449-3.478-0.438-7.759-7.481-9.118c-1.518-0.234-3.034-0.377-4.566-0.422l3.223,4.889
		c6.102,1.505,5.245,6.845,3.306,11.379c-2.327,4.962-8.575,16.184,2.247,16.649c1.288-0.066,2.579-0.161,3.853-0.369
		L537.525,293.804z M530.918,280.375l0.453-0.978c0.409-0.958,0.781-1.938,1.02-2.878l-7.456-11.346l-2.277-3.43l-8.104-12.375
		l-0.516,1.344l-0.34,0.921l-0.952,2.705l-0.031,0.108l4.956,7.06l2.271,3.232L530.918,280.375z M540.911,298.541
		c-0.684,0.138-1.372,0.266-1.856,0.33c-1.327,0.178-3.398,0.278-3.398,0.278c-8.842-0.351-8.6-7.013-8.25-9.548
		c0.21-1.526,1.376-4.427,2.468-6.912l-8.262-11.759c-1.386,0.07-3.199,0.124-4.992,0.059c-3.565-0.128-8.612-0.683-12.135-4.592
		c-4.41-4.893-1.508-12.818,0.779-18.666c-1.307-1.966-3.151-4.712-4.109-5.989c-0.809-1.08-1.179-1.382-1.364-1.469
		c-0.529-0.252-3.167,1.466-4.629-1.579c-1.424-2.967,2.21-6.233,3.577-8.423c2.892-4.632,7.987,2.624,10.538,6.754
		c2.268-6.837,3.167-14.067-5.27-17.203c-6.318-0.181-5.918-1.918-10.419-4.289c-1.906-1.004-2.995-2.024-3.418-2.969
		c-0.253-0.08-0.479-0.167-0.638-0.219c-1.806-0.594-3.01-1.313-4.447-2.52c-0.413-0.347-0.372-0.648-0.168-0.968
		c0.233-0.362,0.691-0.701,1.188-0.341c1.946,1.41,2.313,1.61,4.567,1.605c1.932-1.902,7.572-2.634,14.062-0.451
		c15.144,5.092,18.431,15.414,14.022,28.873c-0.92,2.81-2.108,5.526-3.23,8.267l9.867,14.966c1.124,0.02,2.307,0.047,2.936,0.082
		c1.449,0.079,3.508,0.403,3.508,0.403c10.68,2.058,10.574,10.055,7.562,17.667c-0.177,0.446-0.509,1.142-0.895,1.976l6.118,9.314
		c0.599-0.022,1.181-0.036,1.591-0.026c7.095,0.18,9.772,3.685,8.301,10.654c-0.181,0.859-0.511,1.979-0.817,3.172l8.403,12.633
		c1.553,1.99-1.286,6.609-5.252,3.77l-0.762-1.092c-2.633,1.081-6.349-3.358-7.362-5.256c-1.465-2.74-1.702-5.091-1.602-7.839
		L540.911,298.541z M538.836,291.587l0.458,0.659l8.15,11.563l0.106-0.613c0.095-0.647,0.186-1.249,0.235-1.521l0.095-0.521
		c0.03-0.206,0.053-0.369,0.063-0.464l0.037-0.32l-10.534-16.043l-0.056,0.123c-0.443,1.102-0.839,2.247-1.05,3.292l-0.047,0.248
		L538.836,291.587z M499.184,211.16c0.958-0.049,3.015,0.606,2.638,1.92c-0.474,1.651-4.313,0.551-3.838-1.1
		C498.083,211.631,498.455,211.199,499.184,211.16z M406.86,400.73l-11.497-30.322c0.728-0.169,1.434-0.396,2.112-0.674
		l11.456,30.211C409.454,401.326,407.384,402.11,406.86,400.73z M388.259,426.268c0.043,1.637,2.322,2.437,3.293,3.678
		c0.267,0.341,1.355,2.06,1.797,2.06h49.791l0.015,13.561c0.554,0.9,3.904,1.313,4.547,3.384c0.38,1.225,1.713,2.059,2.812,2.561
		v-25.287L388.259,426.268z M401.987,424.043l-0.598-2.875l-2.426-3.059l-3.182-8.467l-3.741,9.168l-2.366,2.286l-0.699,2.956
		L401.987,424.043z M390.801,415.987l5.065-12.413l4.462,11.873l-2.895-14.864c-0.287-1.643-0.884-1.997-1.51-1.938
		c-1.031,0.097-1.342,0.729-1.697,2.304L390.801,415.987z M446.1,391.353c8.039,7.239,8.687,19.622,1.45,27.66
		c-2.025,2.251-4.454,3.921-7.077,5.002l12.253-0.009v30.512c0,0-1.678-0.426-2.135-0.589c-5.13-1.831-3.404-3.772-6.116-5.094
		c-1.405-0.685-3.547-1.381-3.547-3.3V434.22H393.35c-2.412,0-2.71-2.64-4.101-3.476c-2.61-1.566-4.085-3.82-2.61-6.449
		l5.428-23.836c0.325-1.441,0.906-3.762,3.65-4.02c2.487-0.232,3.563,1.85,3.896,3.752l4.645,23.85l21.286-0.016
		c-2.02-0.83-3.935-2.017-5.651-3.563c-8.039-7.238-8.688-19.622-1.451-27.66C425.679,384.764,438.062,384.114,446.1,391.353z
		 M434.755,419.061c-3.449,1.819-6.738,2.414-9.213,2.543c3.803,1.809,8.105,2.145,12.078,1.053c-0.484-0.651-1.307-1.726-2.4-3.042
		L434.755,419.061z M445.813,407.689c-0.859,1.583-1.975,3.26-3.412,5.011c-1.828,2.229-3.754,3.914-5.67,5.187
		c1.08,1.297,2.107,2.631,3.076,4.007c2.258-0.961,4.348-2.418,6.097-4.361c1.966-2.183,3.276-4.729,3.942-7.394
		c-0.644-0.36-2.048-1.167-3.863-2.338L445.813,407.689z M448.457,397.98c0.023,2.065-0.358,4.699-1.686,7.751
		c1.141,0.74,2.304,1.445,3.488,2.11C450.633,404.479,450.024,401.039,448.457,397.98z M431.924,392.681
		c2.657-1.409,5.567-2.395,8.49-2.484c-3.609-1.707-7.665-2.089-11.46-1.186c0.494,0.653,1.203,1.562,2.089,2.629
		C431.333,391.989,431.627,392.336,431.924,392.681z M420.558,403.635c1.432-2.761,3.456-5.258,6.023-7.364
		c1.028-0.844,2.153-1.671,3.349-2.429c-1.132-1.334-2.21-2.712-3.226-4.13c-2.458,0.952-4.734,2.48-6.618,4.572
		c-1.813,2.013-3.067,4.334-3.775,6.772c0.586,0.326,2.048,1.159,3.967,2.396L420.558,403.635z M418.048,414.766
		c-0.094-3.193,0.455-6.282,1.599-9.143c-1.25-0.816-2.526-1.589-3.828-2.313C415.23,407.225,415.986,411.289,418.048,414.766z
		 M428.489,412.528l-6.15,6.768c0.277,0.035,0.635,0.071,1.062,0.096c3.507,0.199,6.842-0.556,9.844-2.058
		C431.737,415.664,430.15,414.058,428.489,412.528z M438.091,401.96l-8.106,8.921c1.852,1.674,3.618,3.442,5.276,5.301
		c2.015-1.301,3.844-2.954,5.428-4.886c1.038-1.266,2.2-2.978,3.198-4.897C441.893,405.017,439.955,403.535,438.091,401.96z
		 M445.48,393.829l-5.906,6.498c1.683,1.447,3.434,2.813,5.248,4.088c1.466-3.476,2.171-7.323,0.683-10.349l0.137-0.068
		L445.48,393.829z M437.918,398.858l5.573-6.134c-3.345-0.849-6.885,0.069-10.049,1.661
		C434.867,395.938,436.36,397.433,437.918,398.858z M428.321,409.421l8.102-8.916c-1.752-1.576-3.429-3.237-5.012-4.979
		c-1.244,0.769-2.399,1.614-3.425,2.455c-2.24,1.838-4.149,4.247-5.521,6.937C424.482,406.319,426.441,407.822,428.321,409.421z
		 M420.525,418l0.102-0.043l6.209-6.903c-1.69-1.461-3.449-2.84-5.272-4.127c-1.372,3.515-1.825,7.362-0.95,10.977l-0.103,0.083
		L420.525,418z M395.826,352.198l6.991,0.723l-5.649,4.969l1.798,7.077l-6.495-3.49l-6.27,3.498l1.284-7.016l-5.245-5.187
		l6.869-0.576l3.353-6.453L395.826,352.198z M394.412,354.278l-1.947-3.738l-1.954,3.761l-3.296,0.275l2.66,2.632l-0.649,3.544
		l3.226-1.8l3.128,1.681l-0.892-3.512l2.864-2.519L394.412,354.278z M403.686,364.73l14.181,11.334
		c1.153,0.922-0.229,2.651-1.382,1.729l-14.196-11.346C402.797,365.914,403.265,365.34,403.686,364.73z M405.849,385.662
		l-7.945-16.11c0.678-0.305,1.327-0.662,1.943-1.067l7.989,16.198C408.487,386.007,406.501,386.986,405.849,385.662z
		 M415.921,387.364l-15.711-19.126c0.605-0.427,1.176-0.899,1.705-1.413l15.717,19.134
		C418.568,387.1,416.857,388.505,415.921,387.364z M431.917,381.65l-27.904-17.418c0.393-0.624,0.737-1.282,1.029-1.968
		l28.047,17.508C434.342,380.554,433.169,382.433,431.917,381.65z M538.566,427.096l-44.336-9.701v5.592l44.336,11.628V427.096z
		 M525.706,377.8v32.213c2.862-0.859,5.915-1.36,8.874-1.36c3.201,0,6.435,0.576,9.52,1.41v-28.632
		c-6.274,0.663-9.349-4.825-13.729-4.825C528.706,376.605,527.154,377.065,525.706,377.8z M523.492,409.934v-32.146
		c-0.306-0.165-0.637-0.329-0.939-0.45c-0.932-0.372-2.202-0.731-3.607-0.731c-4.376,0-7.817,5.51-13.763,4.84l-0.016,28.357
		c2.694-1.004,5.695-1.31,8.543-1.31C516.798,408.493,520.411,408.912,523.492,409.934z M523.374,375.28
		c0.508,0.203,0.927,0.406,1.234,0.569c1.275-0.654,2.671-1.124,4.099-1.334c0.302-0.065,0.607-0.103,0.917-0.103
		c0.289-0.714,0.357-1.562,0.055-2.516c-1.103,2.193-4.186,0.688-2.583-2.042c0.942-1.605,1.76-2.546,1.587-4.639
		c-0.168-2.045-1.913-3.489-3.577-4.392c0,0,0.685,1.515,0.827,2.455c0.826,5.465-5.439,4.291-4.22,1.217
		c-1.327,1.259-3.12,3.001-3.12,6.544c0,1.266,0.363,2.424,1.012,3.376l0.382,0.03C521.324,374.575,522.493,374.929,523.374,375.28z
		 M556.432,416.538c0.11-0.868,0.238-2.017,0.219-2.497c-0.026-0.623-0.039-1.26-0.125-1.883l-15.745,14.627v6.556
		c4.373-4.487,14.843-15.239,15.186-15.657c0.271-0.332,0.446-1.103,0.455-1.147L556.432,416.538z M545.085,450.634
		c5.278-6.751,18.945-24.241,19.256-24.706c0.665-0.997,0.763-3.999,0.483-5.884l-19.739,22.961V450.634z M486.341,427.572
		l0.001,4.777l-0.001,1.461l56.53,18.62v-8.999L486.341,427.572z M487.454,423.558l-2.426,1.34l0.359,0.107l58.212,16.332
		l19.398-22.564c-1.428-0.248-3.31-0.568-4.718-0.808c-1.21,2.423-9.021,9.842-9.411,10.243c-4.227,4.345-8.843,9.077-8.843,9.077
		l-47.192-12.376L487.454,423.558z M498.182,411.677l-5.203,3.179l46.45,10.163l11.269-10.468
		c-1.421-0.252-10.525-1.845-14.797-2.129c-4.091-0.273-9.831,0.118-11.061,0.209l-0.194,0.071l-0.098-0.026l-0.233-0.047
		c-1.319-0.087-6.85-0.425-10.803-0.206c-4.528,0.249-15.33,2.157-15.33,2.157V411.677z M554.266,411.235l-3.38-0.355v3.496
		L554.266,411.235z M546.313,411.373c0.789,0.143,1.572,0.284,2.347,0.418v-3.372l0.012-23.542h-2.358V411.373z M500.396,407.729
		l0.104-0.064l-0.02,4.163c0.644-0.108,1.491-0.248,2.473-0.401v-26.55h-2.558V407.729z M487.086,415.859l11.096-6.777v-26.42h4.771
		v-4.158c0,0,1.865,0.672,2.478,0.741c4.433,0.5,7.646-3.62,11.748-4.633c-0.524-1.086-0.813-2.317-0.813-3.635
		c0-4.229,2.083-6.933,5.04-9.503c0.945-0.692,1.565-0.89,1.554-0.933c0.867,1.214,0.99,2.354,0.275,3.289
		c-1.162,1.521,1.559,2.751,1.022-0.797c-0.318-2.106-2.214-3.275-3.035-5.062c-0.109-0.236-0.566-1.916-0.566-1.916
		s1.979,0.726,2.747,1.076c4.903,2.232,9.533,5.9,6.452,11.626c1.883,1.221,2.583,3.595,2.021,5.791
		c4.218,0.89,7.303,5.174,11.944,4.684c0.637-0.067,2.494-0.703,2.494-0.703v4.132h4.572v25.991l5.291,0.557
		c2.035,0.212,2.357,0.993,2.565,2.907c0.135,1.244,0.145,2.438,0.017,3.682c1.923,0.326,5.912,1.007,6.659,1.156
		c2.716,0.543,1.668,8.847,0.765,10.201c-0.386,0.58-21.882,28.077-21.882,28.077l-64.627-21.287l4.454-2.816v-4.19l-4.783-1.435
		l12.664-6.99v-1.565L487.086,415.859z M527.994,391.903c5.777-1.504,8.328,2.215,13.611,2.51c1.474,0.083,1.349,2.294-0.125,2.21
		c-5.214-0.291-8.273-3.79-12.929-2.578C527.123,394.418,526.565,392.275,527.994,391.903z M528.078,383.654
		c6.188-1.443,8.155,2.333,13.539,2.62c1.475,0.077,1.356,2.288-0.118,2.21c-5.179-0.275-7.948-3.833-12.919-2.674
		C527.143,386.146,526.64,383.989,528.078,383.654z M528.039,400.05c6.05-1.681,8.288,2.391,13.486,2.504
		c1.476,0.031,1.428,2.245-0.048,2.213c-4.916-0.107-8.158-3.885-12.847-2.583C527.209,402.578,526.616,400.445,528.039,400.05z
		 M520.695,402.184c-4.688-1.302-7.931,2.476-12.846,2.583c-1.477,0.032-1.524-2.182-0.049-2.213
		c5.198-0.113,7.438-4.185,13.487-2.504C522.71,400.445,522.118,402.578,520.695,402.184z M520.774,394.045
		c-3.804-0.989-5.54,0.675-8.787,1.774c-1.169,0.396-2.506,0.713-4.142,0.804c-1.474,0.084-1.598-2.127-0.124-2.21
		c5.283-0.295,7.834-4.015,13.61-2.51C522.761,392.275,522.203,394.418,520.774,394.045z M520.746,385.811
		c-4.97-1.159-7.741,2.398-12.919,2.674c-1.475,0.078-1.592-2.133-0.118-2.21c5.384-0.287,7.352-4.063,13.54-2.62
		C522.688,383.989,522.184,386.146,520.746,385.811z M473.977,303.231c1.979-0.031,2.019,2.276,0.04,2.308
		C472.036,305.57,471.997,303.262,473.977,303.231z M472.361,335.857c-0.39,0-0.702,0.314-0.702,0.698s0.313,0.697,0.702,0.697
		s0.701-0.313,0.701-0.697S472.751,335.857,472.361,335.857z M472.361,333.643c1.607,0,2.915,1.303,2.915,2.913
		s-1.308,2.912-2.915,2.912c-1.608,0-2.916-1.302-2.916-2.912S470.753,333.643,472.361,333.643z M804.435,547.063v-8.007v-7.005
		c0-1-0.031-1.88-0.092-2.638c-0.061-0.818-0.22-1.418-0.478-1.797s-0.75-0.645-1.479-0.796c-0.363-0.091-0.955-0.136-1.774-0.136
		c-0.516,0-0.772-0.138-0.772-0.41s0.333-0.41,1-0.41c0.759,0,2.169,0.046,4.231,0.138h2.319c7.006,0,10.797-0.016,11.374-0.047
		c0.999-0.12,1.651-0.211,1.955-0.271c0.062,0,0.151-0.031,0.273-0.091c0.213-0.061,0.363-0.091,0.454-0.091
		c0.183,0,0.274,0.136,0.274,0.408c0,0.062-0.016,0.198-0.046,0.41c-0.152,0.758-0.259,1.607-0.319,2.547l-0.045,0.955l-0.091,1.206
		c-0.03,0.378-0.061,0.659-0.091,0.841c-0.061,0.334-0.212,0.501-0.455,0.501c-0.272,0-0.409-0.213-0.409-0.637
		c0-0.244-0.023-0.516-0.068-0.819c-0.047-0.303-0.115-0.576-0.206-0.818c-0.183-0.456-0.473-0.812-0.868-1.069
		c-0.397-0.258-1.128-0.447-2.193-0.569c-0.184-0.029-0.525-0.053-1.028-0.068l-2.171-0.067c-1.401-0.03-2.498-0.045-3.29-0.045
		c-0.214,0-0.32,0.151-0.32,0.454v11.509c0,0.333,0.106,0.5,0.32,0.5c1.371,0,2.811-0.008,4.318-0.023
		c1.508-0.015,2.506-0.037,2.992-0.067c1.127-0.091,1.858-0.318,2.194-0.683c0.35-0.425,0.578-0.591,0.729-0.591
		c0.211,0,0.318,0.121,0.318,0.364c0,0.03-0.016,0.166-0.046,0.408c-0.152,0.812-0.258,1.767-0.318,2.866l-0.114,1.614
		c-0.045,0.683-0.068,1.16-0.068,1.434c0,0.272-0.022,0.485-0.067,0.637s-0.16,0.228-0.341,0.228c-0.274,0-0.41-0.137-0.41-0.41
		c0-0.091-0.015-0.227-0.045-0.409c-0.031-0.516-0.077-0.925-0.138-1.228c-0.122-0.485-0.38-0.88-0.776-1.183
		c-0.396-0.304-0.991-0.5-1.783-0.592c-0.183-0.03-0.564-0.053-1.144-0.067c-0.578-0.016-1.248-0.023-2.011-0.023h-3.336
		c-0.183,0-0.275,0.151-0.275,0.456v3.593v7.051c0.03,0.849,0.114,1.509,0.251,1.979c0.137,0.469,0.396,0.841,0.777,1.114
		c0.381,0.272,0.913,0.462,1.598,0.568c0.686,0.106,1.638,0.159,2.854,0.159c0.913,0,1.728-0.029,2.443-0.091
		c0.716-0.061,1.332-0.212,1.85-0.455c0.578-0.273,1.027-0.667,1.348-1.183c0.319-0.516,0.555-1.243,0.707-2.184
		c0.091-0.455,0.258-0.683,0.501-0.683c0.15,0,0.25,0.061,0.295,0.183c0.045,0.121,0.068,0.334,0.068,0.637
		c0,0.242-0.016,0.584-0.045,1.023c-0.031,0.44-0.084,0.956-0.16,1.547c-0.075,0.592-0.144,1.092-0.204,1.5
		c-0.061,0.41-0.121,0.736-0.183,0.979c-0.151,0.576-0.363,0.917-0.636,1.023c-0.273,0.107-0.88,0.16-1.821,0.16
		c-1.818,0-3.35-0.012-4.594-0.035c-1.243-0.022-2.76-0.057-4.549-0.103c-1.607-0.061-2.76-0.091-3.458-0.091
		c-0.242,0-0.955,0.015-2.138,0.046c-1.759,0.029-2.957,0.045-3.594,0.045c-0.606,0-0.91-0.151-0.91-0.454
		c0-0.243,0.243-0.364,0.729-0.364c0.545,0,1.092-0.061,1.638-0.182c0.425-0.091,0.72-0.334,0.887-0.728
		c0.167-0.395,0.311-0.986,0.432-1.774c0.092-0.88,0.151-2.039,0.183-3.479C804.419,551.831,804.435,549.762,804.435,547.063z
		 M127.841,542.861v-7.946v-8.382c0-1.198-0.037-2.25-0.109-3.157c-0.073-0.98-0.264-1.697-0.572-2.15
		c-0.309-0.454-0.898-0.771-1.769-0.952c-0.436-0.109-1.144-0.164-2.124-0.164c-0.617,0-0.925-0.163-0.925-0.489
		s0.399-0.491,1.198-0.491c1.017,0,2.704,0.037,5.063,0.109c1.561,0.037,2.522,0.056,2.885,0.056c0.436,0,1.343-0.019,2.722-0.056
		c1.959-0.072,3.284-0.109,3.974-0.109c0.798,0,1.197,0.165,1.197,0.491s-0.29,0.489-0.871,0.489c-0.399,0-0.926,0.055-1.579,0.164
		c-0.726,0.146-1.225,0.454-1.497,0.926c-0.272,0.473-0.444,1.199-0.517,2.18c-0.073,0.909-0.109,1.964-0.109,3.162v8.396v7.631
		c0,3.743,0.354,6.623,1.062,8.64c0.708,2.018,1.77,3.606,3.185,4.77c1.088,0.908,2.195,1.509,3.321,1.8
		c1.125,0.291,2.286,0.436,3.484,0.436c1.343,0,2.676-0.235,4.001-0.708s2.495-1.218,3.511-2.236
		c1.343-1.344,2.205-3.069,2.586-5.178c0.381-2.108,0.571-4.888,0.571-8.34v-6.813v-8.396c0-1.198-0.036-2.253-0.108-3.162
		c-0.073-0.98-0.264-1.697-0.572-2.152c-0.309-0.454-0.898-0.772-1.77-0.953c-0.182-0.037-0.472-0.073-0.871-0.109
		c-0.399-0.036-0.762-0.055-1.088-0.055c-0.617,0-0.926-0.163-0.926-0.489s0.381-0.491,1.144-0.491c0.943,0,1.96,0.019,3.048,0.056
		l3.048,0.109h0.164c0.145,0,0.671-0.019,1.579-0.056c0.726-0.035,1.533-0.063,2.422-0.081c0.889-0.019,1.624-0.028,2.205-0.028
		c0.762,0,1.144,0.165,1.144,0.491s-0.327,0.489-0.98,0.489c-0.399,0-0.926,0.055-1.579,0.164c-0.726,0.145-1.225,0.452-1.497,0.925
		c-0.272,0.472-0.445,1.197-0.518,2.178c-0.072,0.907-0.108,1.959-0.108,3.157v8.382v5.824c0,1.778-0.063,3.393-0.191,4.845
		c-0.127,1.451-0.363,2.885-0.708,4.3s-0.871,2.739-1.579,3.974c-0.708,1.234-1.606,2.321-2.695,3.266
		c-1.778,1.524-3.583,2.558-5.416,3.103c-1.833,0.545-3.802,0.816-5.907,0.816c-0.944,0-1.878-0.037-2.803-0.108
		c-0.926-0.072-1.923-0.227-2.994-0.464c-1.071-0.235-2.16-0.616-3.267-1.143c-1.106-0.525-2.114-1.206-3.021-2.041
		c-1.524-1.378-2.713-3.202-3.565-5.471C128.268,549.549,127.841,546.563,127.841,542.861z M177.119,534.963l0.5,19.104
		c0.03,1.667,0.182,2.881,0.455,3.639c0.273,0.759,0.652,1.228,1.137,1.41c0.606,0.212,1.395,0.318,2.365,0.318
		c0.516,0,0.773,0.121,0.773,0.364c0,0.303-0.349,0.454-1.046,0.454c-1.274,0-2.729-0.03-4.367-0.091
		c-0.576-0.03-1.001-0.045-1.274-0.045c-0.121,0-0.379,0.015-0.773,0.045c-0.425,0-1.039,0.015-1.842,0.046
		c-0.804,0.029-1.57,0.045-2.297,0.045c-0.667,0-1.001-0.151-1.001-0.454c0-0.243,0.243-0.364,0.728-0.364
		c0.849,0,1.531-0.076,2.047-0.228c0.576-0.182,0.947-0.651,1.114-1.41c0.167-0.758,0.266-2.168,0.296-4.23l0.409-26.928
		c0-1.031,0.197-1.547,0.591-1.547c0.273,0,0.698,0.318,1.274,0.956c0.152,0.181,0.288,0.332,0.409,0.454l1.615,1.706l3.299,3.503
		c1.152,1.228,2.578,2.713,4.276,4.457c1.699,1.744,3.336,3.389,4.913,4.936c0.698,0.697,1.448,1.463,2.251,2.296l4.481,4.664
		c1.001,1.062,1.759,1.857,2.274,2.388l1.001,1.022h0.227l-0.455-20.423c-0.03-1.365-0.159-2.328-0.386-2.889
		c-0.228-0.561-0.614-0.964-1.16-1.205c-0.273-0.121-0.614-0.197-1.023-0.228s-0.872-0.045-1.388-0.045
		c-0.485,0-0.728-0.138-0.728-0.41c0-0.151,0.099-0.257,0.296-0.319c0.197-0.06,0.493-0.091,0.887-0.091
		c1,0,2.305,0.031,3.912,0.091c0.758,0.031,1.289,0.047,1.592,0.047c0.091,0,0.363-0.016,0.819-0.047
		c1.425-0.06,2.638-0.091,3.639-0.091c0.364,0,0.629,0.031,0.796,0.091c0.167,0.063,0.25,0.168,0.25,0.319
		c0,0.272-0.273,0.41-0.819,0.41c-0.545,0-1,0.045-1.365,0.136c-0.637,0.182-1.069,0.554-1.297,1.113
		c-0.227,0.563-0.356,1.479-0.386,2.753l-0.5,28.703c0,0.94-0.197,1.409-0.591,1.409c-0.212,0-0.439-0.083-0.682-0.25
		c-0.243-0.166-0.531-0.417-0.865-0.75c-0.697-0.667-1.69-1.646-2.979-2.934l-4.39-4.391c-2.942-2.972-4.958-4.987-6.05-6.05
		c-0.94-0.909-1.896-1.88-2.866-2.91l-2.662-2.82c-0.803-0.85-1.668-1.774-2.593-2.774c-0.925-1.001-1.494-1.623-1.706-1.866
		l-1.001-1.091H177.119z M222.085,547.063v-8.007v-7.005c0-1-0.03-1.88-0.091-2.638c-0.091-1.485-0.607-2.335-1.547-2.547
		c-0.455-0.121-1.001-0.182-1.638-0.182c-0.485,0-0.728-0.153-0.728-0.456c0-0.242,0.364-0.364,1.092-0.364
		c0.576,0,1.684,0.031,3.324,0.091c1.284,0.031,2.155,0.047,2.614,0.047c0.367,0,1.116-0.016,2.247-0.047
		c1.58-0.06,2.688-0.091,3.325-0.091c0.636,0,0.955,0.122,0.955,0.364c0,0.303-0.243,0.456-0.728,0.456
		c-0.364,0-0.818,0.045-1.365,0.136c-0.606,0.121-1.023,0.378-1.251,0.773c-0.227,0.395-0.372,1.001-0.432,1.819
		c-0.061,0.758-0.091,1.638-0.091,2.638v7.005v8.007c0,2.82,0.007,4.965,0.023,6.437c0.015,1.471,0.068,2.646,0.159,3.524
		c0.091,0.697,0.258,1.221,0.5,1.57c0.242,0.348,0.682,0.568,1.318,0.659l1.138,0.113c0.425,0.046,0.819,0.068,1.183,0.068
		c0.485,0,0.728,0.121,0.728,0.364c0,0.303-0.289,0.454-0.864,0.454c-1.274,0-2.944-0.03-5.011-0.091
		c-0.978-0.03-1.681-0.045-2.109-0.045c-0.245,0-0.963,0.015-2.155,0.045c-1.763,0.061-2.962,0.091-3.599,0.091
		c-0.606,0-0.91-0.151-0.91-0.454c0-0.243,0.242-0.364,0.728-0.364c0.545,0,1.091-0.061,1.638-0.182
		c0.728-0.151,1.167-0.91,1.319-2.274c0.091-0.88,0.152-2.055,0.182-3.524C222.069,551.982,222.085,549.853,222.085,547.063z
		 M253.908,558.115l-11.464-27.793c-0.485-1.182-0.963-1.993-1.433-2.433s-1.145-0.781-2.024-1.023
		c-0.304-0.091-0.599-0.145-0.887-0.159s-0.584-0.022-0.887-0.022c-0.364,0-0.546-0.138-0.546-0.41c0-0.151,0.099-0.257,0.296-0.319
		c0.197-0.06,0.493-0.091,0.887-0.091c0.879,0,2.198,0.031,3.958,0.091c1.244,0.031,2.123,0.047,2.639,0.047
		c0.333,0,0.955-0.016,1.865-0.047c1.517-0.06,2.76-0.091,3.73-0.091c0.304,0,0.553,0.031,0.751,0.091
		c0.197,0.063,0.296,0.168,0.296,0.319c0,0.272-0.228,0.41-0.683,0.41c-0.91,0-1.501,0.105-1.774,0.317
		c-0.304,0.212-0.455,0.531-0.455,0.956c0,0.546,0.348,1.713,1.046,3.502l7.825,20.65h0.182l3.503-8.823
		c0.395-0.971,1.039-2.571,1.934-4.799c0.895-2.229,1.463-3.654,1.706-4.276l0.955-2.479l0.864-2.274
		c0.273-0.698,0.41-1.259,0.41-1.684c0-0.455-0.197-0.743-0.592-0.864c-0.455-0.151-1.061-0.227-1.819-0.227
		c-0.516,0-0.773-0.122-0.773-0.364c0-0.303,0.425-0.456,1.274-0.456c1.031,0,2.29,0.031,3.775,0.091
		c0.485,0.031,0.819,0.047,1.001,0.047s0.713-0.016,1.592-0.047c1.334-0.06,2.229-0.091,2.684-0.091c0.637,0,0.955,0.138,0.955,0.41
		s-0.243,0.41-0.728,0.41c-0.395,0-0.773,0.03-1.138,0.091c-0.364,0.061-0.728,0.212-1.091,0.455
		c-0.333,0.242-0.69,0.652-1.069,1.227c-0.379,0.576-0.857,1.532-1.434,2.866l-1.387,3.229c-0.47,1.092-0.978,2.244-1.524,3.458
		c-0.97,2.092-1.82,3.972-2.548,5.64c-1.364,3.094-2.774,6.338-4.23,9.733l-1.82,4.141l-0.272,0.546
		c-0.516,1.183-0.879,1.948-1.092,2.297c-0.212,0.349-0.455,0.523-0.728,0.523s-0.508-0.175-0.705-0.523
		C254.734,560.019,254.393,559.268,253.908,558.115z M283.57,547.063v-8.007v-7.005c0-1-0.03-1.88-0.091-2.638
		c-0.061-0.818-0.22-1.418-0.477-1.797c-0.258-0.379-0.751-0.645-1.479-0.796c-0.364-0.091-0.956-0.136-1.774-0.136
		c-0.516,0-0.773-0.138-0.773-0.41s0.333-0.41,1.001-0.41c0.758,0,2.168,0.046,4.23,0.138h2.32H297.9
		c1.001-0.122,1.653-0.213,1.956-0.273c0.061,0,0.152-0.03,0.273-0.091c0.212-0.061,0.364-0.091,0.455-0.091
		c0.182,0,0.273,0.137,0.273,0.408c0,0.061-0.015,0.195-0.045,0.403c-0.152,0.743-0.258,1.58-0.319,2.509l-0.045,0.955l-0.091,1.206
		c-0.03,0.378-0.061,0.659-0.091,0.841c-0.061,0.334-0.212,0.501-0.455,0.501c-0.273,0-0.41-0.213-0.41-0.637
		c0-0.244-0.022-0.516-0.068-0.819c-0.046-0.303-0.114-0.576-0.206-0.818c-0.183-0.456-0.472-0.812-0.868-1.069
		c-0.396-0.258-1.127-0.447-2.193-0.569c-0.183-0.029-0.526-0.053-1.028-0.068l-2.171-0.067c-1.401-0.03-2.498-0.045-3.29-0.045
		c-0.213,0-0.32,0.151-0.32,0.454v11.509c0,0.333,0.107,0.5,0.32,0.5c1.371,0,2.81-0.008,4.318-0.023
		c1.507-0.015,2.505-0.037,2.992-0.067c1.127-0.091,1.858-0.318,2.193-0.683c0.351-0.425,0.579-0.591,0.73-0.591
		c0.212,0,0.318,0.121,0.318,0.364c0,0.03-0.015,0.166-0.045,0.408c-0.152,0.812-0.258,1.767-0.318,2.866l-0.114,1.614
		c-0.045,0.683-0.068,1.16-0.068,1.434c0,0.272-0.023,0.485-0.068,0.637c-0.046,0.151-0.16,0.228-0.341,0.228
		c-0.273,0-0.41-0.137-0.41-0.41c0-0.091-0.015-0.227-0.045-0.409c-0.031-0.516-0.076-0.925-0.137-1.228
		c-0.122-0.485-0.381-0.88-0.777-1.183c-0.396-0.304-0.99-0.5-1.783-0.592c-0.183-0.03-0.564-0.053-1.143-0.067
		c-0.579-0.016-1.249-0.023-2.011-0.023h-3.337c-0.183,0-0.274,0.151-0.274,0.456v3.593v7.051c0.03,0.849,0.114,1.509,0.251,1.979
		c0.137,0.469,0.396,0.841,0.777,1.114c0.38,0.272,0.914,0.462,1.599,0.568c0.685,0.106,1.636,0.159,2.854,0.159
		c0.913,0,1.728-0.029,2.443-0.091c0.716-0.061,1.333-0.212,1.85-0.455c0.579-0.273,1.028-0.667,1.347-1.183
		s0.556-1.243,0.708-2.184c0.091-0.455,0.257-0.683,0.5-0.683c0.152,0,0.25,0.061,0.296,0.183c0.045,0.121,0.069,0.334,0.069,0.637
		c0,0.242-0.016,0.584-0.046,1.023c-0.03,0.44-0.083,0.956-0.159,1.547c-0.076,0.592-0.144,1.092-0.204,1.5
		c-0.061,0.41-0.122,0.736-0.182,0.979c-0.151,0.576-0.364,0.917-0.637,1.023c-0.273,0.107-0.88,0.16-1.82,0.16
		c-1.82,0-3.352-0.012-4.595-0.035c-1.243-0.022-2.759-0.057-4.549-0.103c-1.607-0.061-2.76-0.091-3.458-0.091
		c-0.242,0-0.955,0.015-2.138,0.046c-1.759,0.029-2.957,0.045-3.594,0.045c-0.607,0-0.91-0.151-0.91-0.454
		c0-0.243,0.243-0.364,0.728-0.364c0.546,0,1.092-0.061,1.638-0.182c0.425-0.091,0.72-0.334,0.887-0.728
		c0.167-0.395,0.312-0.986,0.433-1.774c0.091-0.88,0.151-2.039,0.182-3.479C283.555,551.831,283.57,549.762,283.57,547.063z
		 M316.305,547.063v-8.007v-7.005c0-1-0.03-1.88-0.091-2.638c-0.061-0.818-0.22-1.418-0.478-1.797s-0.751-0.645-1.479-0.796
		c-0.364-0.091-0.956-0.136-1.774-0.136c-0.516,0-0.774-0.138-0.774-0.41s0.334-0.41,1.001-0.41h1.797
		c0.562,0,1.433,0.016,2.616,0.046c1.062,0.03,1.668,0.045,1.82,0.045c0.546,0,1.667-0.029,3.366-0.091h3.048
		c1.698,0,3.237,0.138,4.617,0.41s2.63,0.788,3.753,1.546c0.758,0.516,1.463,1.336,2.115,2.457c0.652,1.121,0.979,2.38,0.979,3.775
		c0,1.789-0.448,3.487-1.342,5.095s-2.449,3.306-4.663,5.095l1.592,2.001c3.973,5.004,6.733,8.324,8.28,9.962
		c1.091,1.122,2.039,1.888,2.843,2.298c0.803,0.408,1.539,0.675,2.206,0.796c0.561,0.091,0.985,0.136,1.319,0.136
		c0.364,0,0.546,0.121,0.546,0.364c0,0.303-0.288,0.454-0.864,0.454h-4.322c-1.274,0-2.252-0.061-2.934-0.182
		c-0.683-0.121-1.327-0.348-1.934-0.682c-0.91-0.486-1.82-1.229-2.729-2.229c-0.91-1.001-2.078-2.486-3.503-4.458
		c-0.606-0.818-1.38-1.91-2.32-3.274l-1.615-2.253c-0.227-0.317-0.417-0.567-0.569-0.75c-0.182-0.212-0.455-0.318-0.818-0.318
		l-3.958-0.091c-0.243,0-0.364,0.122-0.364,0.364v0.637c0,2.699,0.015,4.776,0.045,6.231c0.03,1.456,0.091,2.623,0.182,3.503
		c0.091,0.758,0.25,1.342,0.478,1.752c0.228,0.408,0.66,0.659,1.296,0.75c0.364,0.03,0.75,0.068,1.16,0.113
		c0.41,0.046,0.766,0.068,1.069,0.068c0.364,0,0.546,0.121,0.546,0.364c0,0.303-0.303,0.454-0.91,0.454s-1.244-0.008-1.911-0.022
		l-3.321-0.068c-0.758-0.03-1.244-0.045-1.456-0.045c-0.243,0-0.865,0.015-1.865,0.045c-1.638,0.061-2.866,0.091-3.685,0.091
		c-0.606,0-0.91-0.151-0.91-0.454c0-0.243,0.243-0.364,0.728-0.364c0.546,0,1.091-0.061,1.637-0.182
		c0.425-0.091,0.721-0.334,0.887-0.728c0.167-0.395,0.311-0.986,0.432-1.774c0.091-0.88,0.151-2.039,0.182-3.479
		C316.29,551.831,316.305,549.762,316.305,547.063z M321.673,528.821v13.828c0,0.425,0.137,0.697,0.409,0.82
		c0.455,0.15,0.994,0.265,1.615,0.34c0.622,0.076,1.236,0.113,1.842,0.113c0.88,0,1.531-0.053,1.956-0.158
		c0.425-0.106,0.85-0.312,1.274-0.614c0.789-0.577,1.433-1.425,1.934-2.547c0.5-1.123,0.75-2.548,0.75-4.276
		c0-1.516-0.22-2.819-0.66-3.911c-0.439-1.093-1.016-1.964-1.729-2.615c-0.712-0.652-1.471-1.115-2.274-1.389
		s-1.569-0.409-2.297-0.409c-1.213,0-2.017,0.061-2.411,0.183C321.81,528.276,321.673,528.488,321.673,528.821z M358.169,560.891
		c-1.334,0-2.533-0.092-3.594-0.273c-1.061-0.182-2.077-0.485-3.047-0.909c-0.364-0.152-0.599-0.326-0.705-0.523
		c-0.106-0.198-0.159-0.538-0.159-1.024c0-0.908,0.022-1.871,0.068-2.888c0.046-1.016,0.099-1.994,0.16-2.934v-0.138
		c0.06-0.787,0.242-1.181,0.545-1.181c0.182,0,0.304,0.067,0.364,0.203c0.061,0.137,0.091,0.326,0.091,0.569
		c0,0.272,0.038,0.622,0.114,1.047c0.076,0.424,0.174,0.849,0.296,1.273c0.485,1.576,1.312,2.736,2.479,3.479
		c1.168,0.743,2.509,1.115,4.026,1.115c1.911,0,3.404-0.531,4.481-1.593c1.076-1.061,1.615-2.259,1.615-3.593
		c0-1.273-0.303-2.472-0.91-3.593c-0.607-1.123-1.79-2.351-3.548-3.686l-2.093-1.638c-2.427-1.91-4.155-3.715-5.186-5.412
		c-1.031-1.698-1.547-3.488-1.547-5.368c0-2.517,0.971-4.579,2.911-6.187c1.941-1.606,4.473-2.41,7.597-2.41
		c1.304,0,2.434,0.075,3.389,0.228c0.955,0.151,1.842,0.333,2.662,0.546c0.424,0.091,0.637,0.272,0.637,0.545
		c0,0.122-0.015,0.364-0.045,0.729c-0.03,0.607-0.061,1.304-0.091,2.093c-0.03,0.787-0.045,1.668-0.045,2.638
		c0,0.909-0.167,1.364-0.5,1.364c-0.303,0-0.455-0.272-0.455-0.818c0-0.334-0.091-0.788-0.273-1.364s-0.485-1.123-0.91-1.639
		c-0.485-0.605-1.107-1.129-1.866-1.568c-0.758-0.439-1.789-0.66-3.093-0.66c-1.638,0-2.949,0.433-3.935,1.297
		c-0.986,0.863-1.479,1.994-1.479,3.389c0,1.062,0.341,2.069,1.023,3.024c0.682,0.956,1.948,2.131,3.798,3.526l1.274,0.955
		c2.729,2.121,4.655,4.049,5.777,5.776c1.122,1.729,1.683,3.669,1.683,5.823c0,1.485-0.333,2.925-1.001,4.32
		c-0.667,1.395-1.759,2.593-3.275,3.594c-1.062,0.667-2.199,1.145-3.412,1.433S359.503,560.891,358.169,560.891z M384.439,547.063
		v-8.007v-7.005c0-1-0.03-1.88-0.09-2.638c-0.092-1.485-0.607-2.335-1.547-2.547c-0.455-0.121-1.001-0.182-1.638-0.182
		c-0.485,0-0.728-0.153-0.728-0.456c0-0.242,0.364-0.364,1.092-0.364c0.576,0,1.684,0.031,3.324,0.091
		c1.284,0.031,2.155,0.047,2.614,0.047c0.366,0,1.116-0.016,2.247-0.047c1.58-0.06,2.688-0.091,3.325-0.091s0.955,0.122,0.955,0.364
		c0,0.303-0.243,0.456-0.728,0.456c-0.364,0-0.819,0.045-1.364,0.136c-0.607,0.121-1.023,0.378-1.251,0.773
		c-0.228,0.395-0.372,1.001-0.432,1.819c-0.061,0.758-0.091,1.638-0.091,2.638v7.005v8.007c0,2.82,0.008,4.965,0.023,6.437
		c0.015,1.471,0.068,2.646,0.159,3.524c0.091,0.697,0.257,1.221,0.5,1.57c0.243,0.348,0.682,0.568,1.319,0.659l1.137,0.113
		c0.425,0.046,0.819,0.068,1.183,0.068c0.485,0,0.728,0.121,0.728,0.364c0,0.303-0.288,0.454-0.864,0.454
		c-1.273,0-2.944-0.03-5.01-0.091c-0.979-0.03-1.682-0.045-2.11-0.045c-0.244,0-0.963,0.015-2.155,0.045
		c-1.762,0.061-2.962,0.091-3.599,0.091c-0.607,0-0.91-0.151-0.91-0.454c0-0.243,0.243-0.364,0.728-0.364
		c0.545,0,1.092-0.061,1.637-0.182c0.728-0.151,1.168-0.91,1.32-2.274c0.091-0.88,0.151-2.055,0.182-3.524
		C384.424,551.982,384.439,549.853,384.439,547.063z M408.984,547.063v-8.007v-7.005c0-1-0.031-1.88-0.091-2.638
		c-0.061-0.818-0.22-1.418-0.477-1.797c-0.258-0.379-0.751-0.645-1.479-0.796c-0.364-0.091-0.955-0.136-1.774-0.136
		c-0.516,0-0.773-0.138-0.773-0.41s0.333-0.41,1-0.41c0.758,0,2.168,0.031,4.23,0.091c1.184,0.031,1.957,0.047,2.321,0.047
		c0.424,0,1.228-0.016,2.411-0.047c2.154-0.06,3.686-0.091,4.595-0.091c1.971,0,3.677,0.038,5.118,0.115
		c1.441,0.075,2.949,0.272,4.526,0.59c1.577,0.319,3.108,0.835,4.594,1.548c1.486,0.712,2.82,1.69,4.003,2.934
		c1.304,1.335,2.365,2.972,3.185,4.913c0.818,1.94,1.228,4.153,1.228,6.641c0,2.668-0.47,5.087-1.41,7.255s-2.123,3.98-3.548,5.436
		c-0.607,0.606-1.343,1.213-2.207,1.819s-1.926,1.184-3.184,1.729c-1.259,0.547-2.714,0.986-4.367,1.319
		c-1.653,0.334-3.48,0.501-5.482,0.501c-0.789,0-1.615-0.022-2.479-0.068c-0.865-0.046-1.949-0.129-3.253-0.249
		c-1.971-0.153-3.291-0.229-3.958-0.229c-0.243,0-0.955,0.015-2.138,0.045c-1.759,0.061-2.957,0.091-3.593,0.091
		c-0.607,0-0.91-0.151-0.91-0.454c0-0.243,0.242-0.364,0.728-0.364c0.545,0,1.092-0.061,1.637-0.182
		c0.424-0.091,0.72-0.334,0.887-0.728c0.167-0.395,0.311-0.986,0.432-1.774c0.091-0.88,0.152-2.039,0.182-3.479
		S408.984,549.762,408.984,547.063z M414.67,538.328v5.731c0,2.456,0.008,4.488,0.023,6.096c0.015,1.607,0.038,2.638,0.068,3.093
		c0.031,0.788,0.083,1.509,0.159,2.161c0.076,0.652,0.189,1.084,0.342,1.297c0.333,0.484,1,0.909,2.001,1.273
		c1.001,0.363,2.32,0.546,3.958,0.546c2.334,0,4.33-0.251,5.981-0.751c1.653-0.5,3.147-1.342,4.482-2.524
		c1.364-1.183,2.343-2.729,2.934-4.64c0.591-1.911,0.887-4.14,0.887-6.688c0-2.607-0.432-4.875-1.296-6.8
		c-0.864-1.926-1.888-3.449-3.07-4.571c-1-0.939-2.063-1.722-3.185-2.343c-1.122-0.622-2.251-1.091-3.389-1.41
		c-1.137-0.317-2.215-0.53-3.23-0.637c-1.015-0.105-2.054-0.159-3.116-0.159c-0.485,0-1.054,0.031-1.705,0.091
		c-0.652,0.061-1.07,0.137-1.251,0.228c-0.364,0.151-0.546,0.455-0.546,0.91C414.686,530.262,414.67,533.295,414.67,538.328z
		 M467.52,548.381h-10.145c-0.183,0-0.319,0.122-0.41,0.364l-2.457,6.505c-0.455,1.122-0.682,2.047-0.682,2.774
		c0,0.456,0.137,0.804,0.409,1.046c0.272,0.243,0.743,0.364,1.41,0.364h0.683c0.455,0,0.682,0.121,0.682,0.364
		c0,0.303-0.257,0.454-0.772,0.454h-2.457c-1.183-0.061-1.971-0.091-2.365-0.091c-0.091,0-0.425,0.015-1.001,0.046
		c-0.455,0-1.1,0.008-1.934,0.022s-1.645,0.022-2.434,0.022c-0.576,0-0.864-0.151-0.864-0.454c0-0.243,0.182-0.364,0.546-0.364
		c0.455,0,0.925-0.03,1.41-0.091c0.971-0.121,1.729-0.509,2.275-1.16c0.545-0.651,1.076-1.631,1.592-2.934l11.418-28.565
		c0.272-0.698,0.5-1.176,0.682-1.434c0.183-0.258,0.379-0.386,0.592-0.386c0.334,0,0.713,0.485,1.138,1.455
		c0.212,0.455,0.667,1.563,1.364,3.319l2.73,6.869l4.345,10.804l1.205,3.002c0.515,1.289,1.061,2.616,1.637,3.98
		c0.759,1.819,1.456,3.063,2.094,3.729c0.636,0.667,1.273,1.077,1.91,1.229c0.606,0.121,1.243,0.182,1.91,0.182
		c0.395,0,0.592,0.121,0.592,0.364c0,0.182-0.137,0.303-0.409,0.363c-0.273,0.061-0.834,0.091-1.684,0.091h-3.98
		c-1.289,0-2.827-0.03-4.617-0.091h-0.183c-0.788-0.061-1.183-0.182-1.183-0.363c0-0.243,0.213-0.38,0.638-0.409
		c0.333-0.091,0.5-0.319,0.5-0.683c0-0.121-0.03-0.242-0.091-0.364l-3.639-9.644C467.883,548.488,467.731,548.381,467.52,548.381z
		 M458.284,546.106h8.37c0.152,0,0.229-0.091,0.229-0.273l-4.095-11.234c-0.062-0.288-0.137-0.409-0.229-0.409
		c-0.12,0-0.212,0.137-0.272,0.409l-4.186,11.189C458.102,546.002,458.162,546.106,458.284,546.106z M491.389,547.063v-8.007v-7.005
		c0-1-0.03-1.88-0.091-2.638c-0.061-0.818-0.22-1.418-0.478-1.797s-0.751-0.645-1.479-0.796c-0.363-0.091-0.955-0.136-1.774-0.136
		c-0.516,0-0.773-0.138-0.773-0.41s0.334-0.41,1.002-0.41c0.758,0,2.168,0.031,4.229,0.091c1.184,0.031,1.957,0.047,2.32,0.047
		c0.425,0,1.229-0.016,2.411-0.047c2.153-0.06,3.686-0.091,4.595-0.091c1.971,0,3.678,0.038,5.118,0.115
		c1.439,0.075,2.949,0.272,4.525,0.59c1.578,0.319,3.109,0.835,4.595,1.548c1.486,0.712,2.821,1.69,4.004,2.934
		c1.304,1.335,2.365,2.972,3.185,4.913c0.818,1.94,1.229,4.153,1.229,6.641c0,2.668-0.47,5.087-1.411,7.255
		c-0.939,2.168-2.122,3.98-3.548,5.436c-0.606,0.606-1.342,1.213-2.206,1.819s-1.927,1.184-3.185,1.729
		c-1.259,0.547-2.714,0.986-4.368,1.319c-1.651,0.334-3.479,0.501-5.48,0.501c-0.789,0-1.615-0.022-2.48-0.068
		c-0.863-0.046-1.947-0.129-3.252-0.249c-1.972-0.153-3.291-0.229-3.958-0.229c-0.242,0-0.955,0.015-2.138,0.045
		c-1.759,0.061-2.957,0.091-3.594,0.091c-0.606,0-0.91-0.151-0.91-0.454c0-0.243,0.242-0.364,0.728-0.364
		c0.547,0,1.093-0.061,1.639-0.182c0.424-0.091,0.72-0.334,0.887-0.728c0.167-0.395,0.312-0.986,0.432-1.774
		c0.091-0.88,0.151-2.039,0.183-3.479C491.374,551.831,491.389,549.762,491.389,547.063z M497.075,538.328v5.731
		c0,2.456,0.008,4.488,0.023,6.096c0.015,1.607,0.037,2.638,0.067,3.093c0.03,0.788,0.084,1.509,0.16,2.161
		c0.075,0.652,0.189,1.084,0.341,1.297c0.333,0.484,1.001,0.909,2.002,1.273c1,0.363,2.319,0.546,3.957,0.546
		c2.335,0,4.329-0.251,5.982-0.751s3.146-1.342,4.481-2.524c1.364-1.183,2.342-2.729,2.934-4.64c0.592-1.911,0.887-4.14,0.887-6.688
		c0-2.607-0.432-4.875-1.296-6.8c-0.864-1.926-1.888-3.449-3.07-4.571c-1.002-0.939-2.063-1.722-3.185-2.343
		c-1.123-0.622-2.252-1.091-3.389-1.41c-1.138-0.317-2.215-0.53-3.23-0.637c-1.017-0.105-2.055-0.159-3.116-0.159
		c-0.485,0-1.055,0.031-1.706,0.091c-0.652,0.061-1.069,0.137-1.251,0.228c-0.364,0.151-0.546,0.455-0.546,0.91
		C497.091,530.262,497.075,533.295,497.075,538.328z M555.531,547.063v-8.007v-7.005c0-1-0.031-1.88-0.092-2.638
		c-0.061-0.818-0.22-1.418-0.478-1.797s-0.751-0.645-1.479-0.796c-0.364-0.091-0.955-0.136-1.774-0.136
		c-0.516,0-0.773-0.138-0.773-0.41s0.334-0.41,1.001-0.41c0.759,0,2.169,0.031,4.23,0.091c1.184,0.031,1.957,0.047,2.321,0.047
		c0.424,0,1.228-0.016,2.41-0.047c2.153-0.06,3.686-0.091,4.595-0.091c1.972,0,3.678,0.038,5.118,0.115
		c1.44,0.075,2.949,0.272,4.526,0.59c1.577,0.319,3.108,0.835,4.595,1.548c1.485,0.712,2.82,1.69,4.003,2.934
		c1.304,1.335,2.365,2.972,3.185,4.913c0.819,1.94,1.228,4.153,1.228,6.641c0,2.668-0.469,5.087-1.409,7.255
		c-0.941,2.168-2.124,3.98-3.549,5.436c-0.606,0.606-1.342,1.213-2.206,1.819c-0.865,0.606-1.926,1.184-3.185,1.729
		c-1.258,0.547-2.715,0.986-4.367,1.319c-1.653,0.334-3.48,0.501-5.481,0.501c-0.789,0-1.615-0.022-2.479-0.068
		s-1.949-0.129-3.253-0.249c-1.971-0.153-3.29-0.229-3.957-0.229c-0.243,0-0.956,0.015-2.139,0.045
		c-1.759,0.061-2.957,0.091-3.594,0.091c-0.606,0-0.909-0.151-0.909-0.454c0-0.243,0.242-0.364,0.728-0.364
		c0.546,0,1.092-0.061,1.638-0.182c0.424-0.091,0.72-0.334,0.887-0.728c0.167-0.395,0.311-0.986,0.433-1.774
		c0.091-0.88,0.15-2.039,0.182-3.479C555.516,551.831,555.531,549.762,555.531,547.063z M561.217,538.328v5.731
		c0,2.456,0.008,4.488,0.022,6.096c0.016,1.607,0.038,2.638,0.068,3.093c0.03,0.788,0.083,1.509,0.159,2.161s0.19,1.084,0.342,1.297
		c0.333,0.484,1.001,0.909,2.002,1.273c1,0.363,2.319,0.546,3.957,0.546c2.335,0,4.329-0.251,5.982-0.751
		c1.652-0.5,3.146-1.342,4.481-2.524c1.364-1.183,2.342-2.729,2.934-4.64c0.592-1.911,0.887-4.14,0.887-6.688
		c0-2.607-0.432-4.875-1.296-6.8c-0.865-1.926-1.889-3.449-3.071-4.571c-1-0.939-2.063-1.722-3.185-2.343
		c-1.121-0.622-2.251-1.091-3.389-1.41c-1.137-0.317-2.214-0.53-3.23-0.637c-1.016-0.105-2.054-0.159-3.115-0.159
		c-0.485,0-1.055,0.031-1.706,0.091c-0.652,0.061-1.069,0.137-1.251,0.228c-0.364,0.151-0.546,0.455-0.546,0.91
		C561.232,530.262,561.217,533.295,561.217,538.328z M601.737,547.063v-8.007v-7.005c0-1-0.03-1.88-0.091-2.638
		c-0.061-0.818-0.22-1.418-0.478-1.797c-0.257-0.379-0.75-0.645-1.478-0.796c-0.364-0.091-0.956-0.136-1.774-0.136
		c-0.516,0-0.773-0.138-0.773-0.41s0.333-0.41,1.001-0.41c0.758,0,2.168,0.046,4.229,0.138h2.32c7.006,0,10.797-0.016,11.373-0.047
		c1.001-0.12,1.652-0.211,1.956-0.271c0.062,0,0.152-0.031,0.273-0.091c0.212-0.061,0.363-0.091,0.455-0.091
		c0.182,0,0.272,0.136,0.272,0.408c0,0.062-0.015,0.198-0.046,0.41c-0.151,0.758-0.258,1.607-0.318,2.547l-0.045,0.955l-0.091,1.206
		c-0.03,0.378-0.062,0.659-0.091,0.841c-0.062,0.334-0.213,0.501-0.455,0.501c-0.273,0-0.41-0.213-0.41-0.637
		c0-0.244-0.022-0.516-0.068-0.819c-0.046-0.303-0.114-0.576-0.205-0.818c-0.184-0.456-0.473-0.812-0.868-1.069
		c-0.396-0.258-1.128-0.447-2.194-0.569c-0.183-0.029-0.525-0.053-1.027-0.068l-2.171-0.067c-1.4-0.03-2.497-0.045-3.29-0.045
		c-0.214,0-0.319,0.151-0.319,0.454v11.509c0,0.333,0.105,0.5,0.319,0.5c1.371,0,2.811-0.008,4.318-0.023
		c1.508-0.015,2.505-0.037,2.992-0.067c1.127-0.091,1.858-0.318,2.193-0.683c0.35-0.425,0.578-0.591,0.73-0.591
		c0.212,0,0.318,0.121,0.318,0.364c0,0.03-0.016,0.166-0.046,0.408c-0.151,0.812-0.258,1.767-0.318,2.866l-0.114,1.614
		c-0.045,0.683-0.067,1.16-0.067,1.434c0,0.272-0.023,0.485-0.068,0.637c-0.046,0.151-0.159,0.228-0.342,0.228
		c-0.272,0-0.408-0.137-0.408-0.41c0-0.091-0.016-0.227-0.046-0.409c-0.031-0.516-0.076-0.925-0.137-1.228
		c-0.123-0.485-0.382-0.88-0.777-1.183c-0.396-0.304-0.991-0.5-1.783-0.592c-0.183-0.03-0.563-0.053-1.143-0.067
		c-0.579-0.016-1.25-0.023-2.012-0.023h-3.336c-0.184,0-0.274,0.151-0.274,0.456v3.593v7.051c0.029,0.849,0.113,1.509,0.25,1.979
		c0.138,0.469,0.396,0.841,0.776,1.114c0.381,0.272,0.914,0.462,1.599,0.568c0.686,0.106,1.637,0.159,2.854,0.159
		c0.913,0,1.728-0.029,2.442-0.091c0.716-0.061,1.333-0.212,1.851-0.455c0.578-0.273,1.027-0.667,1.347-1.183
		c0.32-0.516,0.556-1.243,0.708-2.184c0.091-0.455,0.258-0.683,0.5-0.683c0.152,0,0.251,0.061,0.297,0.183
		c0.045,0.121,0.067,0.334,0.067,0.637c0,0.242-0.015,0.584-0.046,1.023c-0.029,0.44-0.083,0.956-0.159,1.547
		c-0.075,0.592-0.144,1.092-0.204,1.5c-0.062,0.41-0.122,0.736-0.182,0.979c-0.151,0.576-0.364,0.917-0.638,1.023
		c-0.272,0.107-0.88,0.16-1.819,0.16c-1.819,0-3.352-0.012-4.596-0.035c-1.243-0.022-2.759-0.057-4.548-0.103
		c-1.607-0.061-2.76-0.091-3.457-0.091c-0.244,0-0.956,0.015-2.139,0.046c-1.759,0.029-2.957,0.045-3.594,0.045
		c-0.606,0-0.91-0.151-0.91-0.454c0-0.243,0.243-0.364,0.729-0.364c0.546,0,1.091-0.061,1.637-0.182
		c0.425-0.091,0.722-0.334,0.888-0.728c0.167-0.395,0.311-0.986,0.433-1.774c0.091-0.88,0.151-2.039,0.182-3.479
		S601.737,549.762,601.737,547.063z M672.874,561.038c-3.866,0-7.335-0.47-10.405-1.409c-3.072-0.939-5.8-2.438-8.184-4.497
		c-2.458-2.168-4.191-4.625-5.204-7.371c-1.011-2.746-1.518-5.617-1.518-8.616c0-1.048,0.1-2.177,0.298-3.387
		c0.199-1.21,0.533-2.484,1.004-3.82c0.469-1.338,1.119-2.665,1.95-3.984c0.831-1.317,1.861-2.537,3.09-3.657
		c2.06-1.879,4.463-3.307,7.208-4.281c2.745-0.976,6.052-1.463,9.917-1.463c1.555,0,2.909,0.046,4.066,0.136
		c1.155,0.091,2.42,0.226,3.793,0.406c0.614,0.072,1.536,0.234,2.764,0.487c1.193,0.218,2.078,0.361,2.656,0.434
		c0.542,0.036,0.813,0.253,0.813,0.65c0,0.108-0.018,0.324-0.054,0.65c-0.108,0.722-0.181,1.499-0.217,2.33
		c-0.036,0.65-0.055,1.68-0.055,3.09c-0.035,1.517-0.072,2.438-0.107,2.763c-0.037,0.83-0.254,1.247-0.651,1.247
		c-0.36,0-0.541-0.397-0.541-1.192c-0.036-0.867-0.234-1.743-0.598-2.628c-0.36-0.886-0.866-1.672-1.517-2.358
		c-0.903-0.976-2.357-1.778-4.363-2.411c-2.004-0.633-4.218-0.948-6.639-0.948c-2.275,0-4.236,0.28-5.88,0.84
		c-1.645,0.561-3.081,1.4-4.31,2.52c-1.843,1.698-3.134,3.722-3.875,6.07c-0.74,2.348-1.11,5.004-1.11,7.966
		c0,3.071,0.523,5.825,1.571,8.265c1.048,2.438,2.421,4.471,4.119,6.097c1.698,1.625,3.551,2.854,5.555,3.685
		c2.006,0.831,3.947,1.246,5.826,1.246c2.565,0,4.598-0.207,6.098-0.622c1.5-0.417,2.773-1.22,3.821-2.412
		c0.434-0.47,0.821-1.048,1.165-1.734c0.343-0.687,0.568-1.301,0.677-1.842c0.073-0.435,0.153-0.723,0.244-0.867
		c0.091-0.146,0.244-0.218,0.461-0.218c0.325,0,0.487,0.271,0.487,0.813c0,0.181-0.036,0.578-0.108,1.192s-0.162,1.273-0.271,1.979
		c-0.108,0.703-0.234,1.436-0.38,2.194c-0.144,0.759-0.288,1.372-0.434,1.843c-0.145,0.469-0.298,0.803-0.46,1.002
		s-0.479,0.388-0.948,0.568c-1.048,0.397-2.476,0.705-4.281,0.923C676.542,560.93,674.717,561.038,672.874,561.038z M706.102,540.33
		h17.377c0.183,0,0.273-0.106,0.273-0.318v-0.956v-7.005c0-1-0.03-1.88-0.091-2.638c-0.062-0.818-0.22-1.418-0.478-1.797
		c-0.259-0.379-0.751-0.645-1.479-0.796c-0.364-0.091-0.956-0.136-1.774-0.136c-0.516,0-0.773-0.138-0.773-0.41
		s0.319-0.41,0.955-0.41c1.031,0,2.472,0.031,4.322,0.091c1.121,0.031,1.865,0.047,2.229,0.047c0.243,0,0.985-0.016,2.229-0.047
		c1.76-0.06,2.927-0.091,3.503-0.091c0.638,0,0.956,0.138,0.956,0.41s-0.273,0.41-0.818,0.41c-0.334,0-0.774,0.045-1.319,0.136
		c-0.607,0.121-1.024,0.378-1.252,0.773c-0.227,0.395-0.371,1.001-0.432,1.819c-0.062,0.758-0.091,1.638-0.091,2.638v7.005v8.007
		c0,2.699,0.015,4.769,0.045,6.209s0.092,2.614,0.183,3.525c0.091,0.728,0.25,1.296,0.477,1.706c0.229,0.408,0.66,0.659,1.297,0.75
		l1.138,0.113c0.424,0.046,0.819,0.068,1.183,0.068c0.485,0,0.729,0.121,0.729,0.364c0,0.303-0.304,0.454-0.91,0.454
		c-1.213,0-2.852-0.03-4.913-0.091c-1.031-0.03-1.759-0.045-2.184-0.045c-0.242,0-0.955,0.015-2.138,0.045
		c-1.76,0.061-2.942,0.091-3.55,0.091c-0.636,0-0.954-0.151-0.954-0.454c0-0.243,0.242-0.364,0.728-0.364
		c0.546,0,1.092-0.061,1.638-0.182c0.425-0.091,0.72-0.334,0.888-0.728c0.166-0.395,0.31-0.986,0.432-1.774
		c0.091-0.88,0.152-2.039,0.182-3.479c0.03-1.44,0.046-3.51,0.046-6.209v-4.003c0-0.184-0.091-0.273-0.273-0.273h-17.377
		c-0.183,0-0.273,0.09-0.273,0.273v4.003c0,2.699,0.016,4.769,0.046,6.209s0.09,2.614,0.183,3.525
		c0.09,0.728,0.249,1.296,0.477,1.706c0.228,0.408,0.66,0.659,1.297,0.75l1.137,0.113c0.425,0.046,0.819,0.068,1.183,0.068
		c0.485,0,0.729,0.121,0.729,0.364c0,0.303-0.304,0.454-0.91,0.454c-1.214,0-2.851-0.03-4.913-0.091
		c-1.031-0.03-1.759-0.045-2.183-0.045c-0.243,0-0.956,0.015-2.139,0.045c-1.759,0.061-2.957,0.091-3.594,0.091
		c-0.606,0-0.91-0.151-0.91-0.454c0-0.243,0.243-0.364,0.728-0.364c0.546,0,1.092-0.061,1.638-0.182
		c0.425-0.091,0.721-0.334,0.888-0.728c0.167-0.395,0.311-0.986,0.432-1.774c0.092-0.88,0.152-2.039,0.183-3.479
		s0.046-3.51,0.046-6.209v-8.007v-7.005c0-1-0.031-1.88-0.092-2.638c-0.062-0.818-0.221-1.418-0.478-1.797
		c-0.258-0.379-0.75-0.645-1.479-0.796c-0.364-0.091-0.955-0.136-1.774-0.136c-0.515,0-0.773-0.138-0.773-0.41
		s0.318-0.41,0.955-0.41c1.031,0,2.473,0.031,4.322,0.091c1.122,0.031,1.865,0.047,2.229,0.047c0.242,0,0.984-0.016,2.229-0.047
		c1.759-0.06,2.927-0.091,3.503-0.091c0.637,0,0.956,0.138,0.956,0.41s-0.274,0.41-0.819,0.41c-0.334,0-0.773,0.045-1.319,0.136
		c-0.606,0.121-1.023,0.378-1.251,0.773c-0.228,0.395-0.371,1.001-0.433,1.819c-0.061,0.758-0.091,1.638-0.091,2.638v7.005v0.956
		C705.828,540.224,705.919,540.33,706.102,540.33z M748.372,547.063v-8.007v-7.005c0-1-0.03-1.88-0.091-2.638
		c-0.091-1.485-0.606-2.335-1.547-2.547c-0.455-0.121-1-0.182-1.638-0.182c-0.485,0-0.728-0.153-0.728-0.456
		c0-0.242,0.363-0.364,1.092-0.364c0.576,0,1.685,0.031,3.324,0.091c1.284,0.031,2.154,0.047,2.613,0.047
		c0.367,0,1.116-0.016,2.247-0.047c1.579-0.06,2.688-0.091,3.324-0.091c0.638,0,0.956,0.122,0.956,0.364
		c0,0.303-0.242,0.456-0.729,0.456c-0.364,0-0.818,0.045-1.364,0.136c-0.606,0.121-1.023,0.378-1.251,0.773
		c-0.228,0.395-0.371,1.001-0.432,1.819c-0.062,0.758-0.092,1.638-0.092,2.638v7.005v8.007c0,2.82,0.008,4.965,0.023,6.437
		c0.014,1.471,0.068,2.646,0.158,3.524c0.091,0.697,0.258,1.221,0.501,1.57c0.242,0.348,0.683,0.568,1.319,0.659l1.137,0.113
		c0.426,0.046,0.818,0.068,1.184,0.068c0.485,0,0.727,0.121,0.727,0.364c0,0.303-0.287,0.454-0.864,0.454
		c-1.273,0-2.944-0.03-5.01-0.091c-0.979-0.03-1.682-0.045-2.109-0.045c-0.244,0-0.964,0.015-2.155,0.045
		c-1.763,0.061-2.962,0.091-3.599,0.091c-0.606,0-0.91-0.151-0.91-0.454c0-0.243,0.243-0.364,0.728-0.364
		c0.547,0,1.092-0.061,1.638-0.182c0.728-0.151,1.167-0.91,1.319-2.274c0.092-0.88,0.152-2.055,0.183-3.524
		C748.357,551.982,748.372,549.853,748.372,547.063z M778.603,539.056v8.007c0,3.427,0.054,5.822,0.159,7.187
		c0.106,1.365,0.371,2.229,0.797,2.593c0.425,0.364,1.023,0.622,1.796,0.773c0.773,0.151,2.01,0.228,3.708,0.228
		c1.455,0,2.578-0.076,3.366-0.228s1.441-0.501,1.956-1.045c0.273-0.305,0.531-0.722,0.773-1.253
		c0.243-0.529,0.379-1.022,0.41-1.478c0.061-0.456,0.227-0.683,0.5-0.683c0.242,0,0.364,0.258,0.364,0.773
		c0,0.152-0.015,0.417-0.046,0.797c-0.03,0.378-0.083,0.887-0.158,1.522c-0.077,0.638-0.152,1.206-0.229,1.707
		c-0.075,0.5-0.158,0.901-0.25,1.205c-0.152,0.515-0.379,0.849-0.683,1s-1.03,0.229-2.183,0.229c-1.639,0-3.064-0.012-4.277-0.035
		c-1.213-0.022-2.638-0.057-4.276-0.103c-2.031-0.061-3.594-0.091-4.685-0.091c-0.243,0-0.956,0.015-2.139,0.046
		c-1.759,0.029-2.957,0.045-3.594,0.045c-0.606,0-0.91-0.151-0.91-0.454c0-0.243,0.242-0.364,0.729-0.364
		c0.546,0,1.091-0.061,1.637-0.182c0.426-0.091,0.721-0.334,0.888-0.728c0.167-0.395,0.311-0.986,0.433-1.774
		c0.09-0.88,0.151-2.039,0.182-3.479c0.031-1.44,0.045-3.51,0.045-6.209v-8.007v-7.005c0-1-0.03-1.88-0.09-2.638
		c-0.062-0.818-0.221-1.418-0.479-1.797s-0.75-0.645-1.479-0.796c-0.363-0.091-0.864-0.136-1.5-0.136
		c-0.516,0-0.774-0.138-0.774-0.41s0.334-0.41,1.001-0.41c0.729,0,2.031,0.031,3.912,0.091c1.273,0.031,2.047,0.047,2.32,0.047
		c0.242,0,1.046-0.016,2.411-0.047c1.94-0.06,3.199-0.091,3.775-0.091c0.637,0,0.956,0.138,0.956,0.41s-0.273,0.41-0.819,0.41
		c-0.638,0-1.229,0.045-1.774,0.136c-0.606,0.121-1.023,0.378-1.252,0.773c-0.227,0.395-0.37,1.001-0.432,1.819
		c-0.06,0.758-0.091,1.638-0.091,2.638V539.056z"/>
</g>
</svg>
